<?xml version="1.0" standalone="no"?>
<!DOCTYPE svg PUBLIC "-//W3C//DTD SVG 1.1//EN" "http://www.w3.org/Graphics/SVG/1.1/DTD/svg11.dtd" >
<svg xmlns="http://www.w3.org/2000/svg" xmlns:xlink="http://www.w3.org/1999/xlink" version="1.1">
<metadata>
Created by FontForge 20201107 at Wed Mar  4 01:53:10 2020
 By 
Copyright (c) 2020 by Alexander Pravdin. All rights reserved.
</metadata>
<defs>
<font id="NEXTART-Heavy" horiz-adv-x="1586" >
  <font-face 
    font-family="NEXT ART"
    font-weight="900"
    font-stretch="normal"
    units-per-em="2048"
    panose-1="2 0 8 3 3 0 0 2 0 4"
    ascent="1638"
    descent="-410"
    x-height="1434"
    cap-height="1434"
    bbox="-106 -610 2966 1977"
    underline-thickness="50"
    underline-position="-150"
    unicode-range="U+0020-F6D4"
  />
<missing-glyph horiz-adv-x="1498" 
d="M1252 1675l-99 -241h215v-1434h-799l-98 -241h-225l98 241h-214v1434h797l98 241h227zM1151 215v1002h-86l-409 -1002h495zM347 1217v-1002h84l408 1002h-492z" />
    <glyph glyph-name=".notdef" horiz-adv-x="1498" 
d="M1252 1675l-99 -241h215v-1434h-799l-98 -241h-225l98 241h-214v1434h797l98 241h227zM1151 215v1002h-86l-409 -1002h495zM347 1217v-1002h84l408 1002h-492z" />
    <glyph glyph-name=".null" horiz-adv-x="0" 
 />
    <glyph glyph-name="nonmarkingreturn" horiz-adv-x="682" 
 />
    <glyph glyph-name="space" unicode=" " horiz-adv-x="520" 
 />
    <glyph glyph-name="exclam" unicode="!" horiz-adv-x="612" 
d="M134 339h344v-339h-344v339zM159 463l-39 971h372l-37 -971h-296z" />
    <glyph glyph-name="quotedbl" unicode="&#x22;" horiz-adv-x="1042" 
d="M553 1434h361l-41 -552h-296zM128 1434h362l-25 -552h-296z" />
    <glyph glyph-name="numbersign" unicode="#" horiz-adv-x="1560" 
d="M701 833l-42 -223h199l42 223h-199zM545 0h-319l63 321h-234l55 295h234l39 211h-233l57 295h232l60 309h320l-58 -309h191l60 309h319l-60 -309h234l-56 -295h-234l-39 -211h233l-57 -295h-232l-62 -321h-320l60 321h-190z" />
    <glyph glyph-name="dollar" unicode="$" horiz-adv-x="1276" 
d="M44 252l213 259q207 -181 409 -181q50 0 96 9.5t82 36t36 66.5q0 20 -9 36.5t-30 29t-41 21.5t-58 18.5t-63.5 14.5t-74.5 14.5t-76 14.5q-79 16 -140 34.5t-126 51t-107.5 73.5t-70 104t-27.5 141q0 170 113.5 289.5t316.5 143.5v241h309v-262q183 -48 336 -163
l-202 -257q-73 58 -167 91t-183 33q-69 0 -121.5 -20t-52.5 -64q0 -17 8 -30.5t28.5 -25t39.5 -19t59 -16t67.5 -13.5t82.5 -14q60 -10 108 -20t106.5 -29t102.5 -41.5t88 -58t72.5 -78.5t46 -103t17.5 -131q0 -166 -122 -285.5t-314 -152.5v-249h-309v260q-239 53 -443 231
z" />
    <glyph glyph-name="percent" unicode="%" horiz-adv-x="1845" 
d="M480 1436q120 0 214.5 -60.5t145 -160t50.5 -216.5t-50.5 -216.5t-145 -160t-214.5 -60.5q-179 0 -294.5 128.5t-115.5 308.5t115.5 308.5t294.5 128.5zM1365 873q120 0 214.5 -60.5t145 -160t50.5 -216.5t-50.5 -216.5t-145 -160t-214.5 -60.5q-179 0 -294.5 128.5
t-115.5 308.5t115.5 308.5t294.5 128.5zM1601 1434l-314 -490h-354l247 490h421zM244 0l314 490h353l-246 -490h-421zM1365 267q42 0 70 30t37 65.5t9 73.5t-9 73.5t-37 65t-70 29.5t-69.5 -29.5t-37 -65t-9.5 -73.5t9.5 -73.5t37 -65.5t69.5 -30zM480 830q42 0 70 30
t37 65.5t9 73.5t-9 73.5t-37 65t-70 29.5t-69.5 -29.5t-37 -65t-9.5 -73.5t9.5 -73.5t37 -65.5t69.5 -30z" />
    <glyph glyph-name="ampersand" unicode="&#x26;" horiz-adv-x="1452" 
d="M1146 361l327 -361h-435l-109 126q-50 -46 -146 -86t-218 -40q-127 0 -242 57t-189.5 165t-74.5 240q0 110 62.5 205.5t163.5 156.5q-56 99 -56 195q0 94 41 174t106.5 132t145 81t158.5 29q234 0 429 -238l-267 -209q-100 131 -171 131q-34 0 -60.5 -27t-26.5 -68
q0 -28 15.5 -51.5t69.5 -83.5l252 -284q75 131 66 369h346q0 -217 -56 -373q-17 -50 -41 -96.5t-41.5 -73t-48.5 -70.5zM578 313q71 0 128 56l-204 228q-42 -17 -66 -53.5t-24 -76.5q0 -64 48.5 -109t117.5 -45z" />
    <glyph glyph-name="quotesingle" unicode="'" horiz-adv-x="584" 
d="M106 1434h372l-42 -552h-288z" />
    <glyph glyph-name="parenleft" unicode="(" horiz-adv-x="720" 
d="M320 1707h326q-112 -190 -172.5 -462.5t-60.5 -532.5t57.5 -518.5t175.5 -477.5h-326q-123 184 -194.5 462.5t-71.5 533.5q0 552 266 995z" />
    <glyph glyph-name="parenright" unicode=")" horiz-adv-x="720" 
d="M74 1707h326q266 -443 266 -995q0 -255 -71.5 -533.5t-194.5 -462.5h-326q118 219 175.5 477.5t57.5 518.5t-60.5 532.5t-172.5 462.5z" />
    <glyph glyph-name="asterisk" unicode="*" horiz-adv-x="877" 
d="M320 1514h237l-8 -213l199 74l74 -227l-204 -59l131 -165l-192 -139l-118 174l-118 -174l-192 139l130 165l-204 59l73 226l199 -73z" />
    <glyph glyph-name="plus" unicode="+" horiz-adv-x="1037" 
d="M360 245v300h-300v316h300v300h317v-300h300v-316h-300v-300h-317z" />
    <glyph glyph-name="comma" unicode="," horiz-adv-x="585" 
d="M65 -229l67 586h377l-166 -586h-278z" />
    <glyph glyph-name="hyphen" unicode="-" horiz-adv-x="1038" 
d="M130 535v328h778v-328h-778z" />
    <glyph glyph-name="period" unicode="." horiz-adv-x="585" 
d="M113 0v357h359v-357h-359z" />
    <glyph glyph-name="slash" unicode="/" horiz-adv-x="1368" 
d="M952 1707h377l-913 -1994h-378z" />
    <glyph glyph-name="zero" unicode="0" 
d="M793 0q-156 0 -293 55.5t-233 151t-151.5 228t-55.5 282.5t55.5 282.5t151.5 228t233 151t293 55.5t293 -55.5t233 -151t151.5 -228t55.5 -282.5t-55.5 -282.5t-151.5 -228t-233 -151t-293 -55.5zM793 1106q-167 0 -268 -111t-101 -278t101 -277.5t268 -110.5t268 110.5
t101 277.5t-101 278t-268 111z" />
    <glyph glyph-name="one" unicode="1" horiz-adv-x="755" 
d="M54 1435h559v-1435h-359v1104h-200v331z" />
    <glyph glyph-name="two" unicode="2" horiz-adv-x="1268" 
d="M1160 332v-331h-1047v321q1 77 26 142t64.5 112.5t99.5 88t119 67.5t133 52q11 3 45 13t50 16t45 17t44.5 22.5t33 27t25 35.5t7.5 43q0 64 -49.5 105.5t-120.5 41.5q-63 0 -109.5 -34.5t-60.5 -99.5h-356q15 202 161.5 332.5t364.5 130.5q97 0 191 -34.5t169 -95
t121.5 -152t46.5 -196.5q0 -149 -88 -242.5t-295 -165.5q-149 -52 -202 -81q-110 -60 -113 -135h695z" />
    <glyph glyph-name="three" unicode="3" horiz-adv-x="1308" 
d="M123 1434h975v-329l-327 -205q192 -1 325.5 -125.5t133.5 -312.5q0 -108 -47 -197t-125.5 -146.5t-177 -88.5t-205.5 -31q-82 0 -159.5 18t-148 55.5t-124.5 91.5t-87 131.5t-37 169.5h359q10 -68 67 -99.5t130 -31.5q46 0 88 12.5t75.5 48t33.5 89.5q0 81 -68 122
t-162 41q-78 0 -142 -32l-171 247l324 243h-530v329z" />
    <glyph glyph-name="four" unicode="4" horiz-adv-x="1321" 
d="M690 261h-623v332l622 841h354v-848h211v-325h-211v-261h-353v261zM424 586h266v363z" />
    <glyph glyph-name="five" unicode="5" horiz-adv-x="1287" 
d="M96 467h360q10 -68 67 -102.5t128 -34.5q76 0 139.5 39.5t63.5 116.5q0 73 -59 119t-141 46h-501v783h965v-331h-610v-144h143q190 0 320 -66q116 -60 178.5 -169t62.5 -259q0 -108 -47.5 -197.5t-126.5 -147t-178 -89t-205 -31.5q-82 0 -160 17.5t-149.5 55t-126 91
t-88 132t-35.5 171.5z" />
    <glyph glyph-name="six" unicode="6" horiz-adv-x="1252" 
d="M1032 1434l-361 -470q184 -8 316 -103q89 -64 140 -158t51 -207q0 -136 -74 -250.5t-202 -180.5t-280 -66q-109 0 -210 38t-176 102.5t-120 157t-46 196.5q0 82 33.5 169.5t73.5 152t149 225.5q17 26 26 39l239 355h441zM622 324q83 0 141 50.5t58 123.5
q0 71 -58.5 122.5t-140.5 51.5t-138.5 -51.5t-56.5 -122.5q0 -73 56.5 -123.5t138.5 -50.5z" />
    <glyph glyph-name="seven" unicode="7" horiz-adv-x="1243" 
d="M633 0h-396l514 1106h-686v328h1129v-178z" />
    <glyph glyph-name="eight" unicode="8" horiz-adv-x="1291" 
d="M645 1107q-33 0 -62.5 -5t-59 -17t-47 -36.5t-17.5 -57.5q0 -43 30.5 -70.5t70 -37.5t85.5 -10q45 0 84 9t71 37t32 72q0 43 -30 70.5t-69.5 36.5t-87.5 9zM645 597q-83 0 -145.5 -32.5t-62.5 -102.5q0 -47 32 -78.5t77 -44t99 -12.5q38 0 73 7t66.5 21.5t50 42
t18.5 64.5q0 69 -61 102t-147 33zM1049 754q162 -137 162 -317q0 -104 -49 -189t-130.5 -138t-181 -81.5t-205.5 -28.5q-80 0 -159 16.5t-152.5 52t-130 86t-90 123.5t-33.5 159q0 180 162 317q-74 54 -100 121t-26 150q0 96 46 175.5t122 129.5t169 77t192 27
q76 0 150.5 -15.5t143 -49t121 -80.5t84 -115.5t31.5 -148.5q0 -83 -26 -150t-100 -121z" />
    <glyph glyph-name="nine" unicode="9" horiz-adv-x="1252" 
d="M220 -1l361 470q-184 8 -316 103q-89 64 -140 158t-51 207q0 136 74 250.5t202 180.5t280 66q109 0 210 -38t176 -102.5t120 -157t46 -196.5q0 -82 -33.5 -169.5t-73.5 -152t-149 -225.5q-17 -26 -26 -39l-239 -355h-441zM630 1109q-83 0 -141 -50.5t-58 -123.5
q0 -71 58.5 -122.5t140.5 -51.5t138.5 51.5t56.5 122.5q0 73 -56.5 123.5t-138.5 50.5z" />
    <glyph glyph-name="colon" unicode=":" horiz-adv-x="585" 
d="M113 716v357h359v-357h-359zM113 0v357h359v-357h-359z" />
    <glyph glyph-name="semicolon" unicode=";" horiz-adv-x="585" 
d="M115 716v357h359v-357h-359zM60 -229l67 586h377l-166 -586h-278z" />
    <glyph glyph-name="less" unicode="&#x3c;" horiz-adv-x="1067" 
d="M54 901l871 400v-374l-527 -209l527 -210v-373l-871 400v366z" />
    <glyph glyph-name="equal" unicode="=" horiz-adv-x="1148" 
d="M108 1058h932v-298h-932v298zM108 647h932v-298h-932v298z" />
    <glyph glyph-name="greater" unicode="&#x3e;" horiz-adv-x="1067" 
d="M142 1300l871 -400v-366l-871 -400v373l527 210l-527 209v374z" />
    <glyph glyph-name="question" unicode="?" horiz-adv-x="1115" 
d="M714 462h-310q-3 98 20 170.5t57.5 113t87.5 76.5q9 6 41 27t44 31t32 29t28 38.5t8 42.5q0 53 -45.5 84.5t-118.5 31.5q-157 0 -165 -151h-362q11 219 154.5 350t377.5 131q227 0 372.5 -122.5t145.5 -311.5q0 -100 -43 -169t-122 -123q-13 -9 -43.5 -28.5t-43 -28.5
t-35.5 -27t-33.5 -32t-23 -35t-17.5 -44.5t-6 -52.5zM730 338v-338h-344v338h344z" />
    <glyph glyph-name="at" unicode="@" horiz-adv-x="1794" 
d="M1019 1105h287v-474q0 -115 73 -115q34 0 56 17t31.5 48.5t12.5 58.5t3 66q0 155 -74 288t-209.5 213.5t-302.5 80.5q-155 0 -289 -75.5t-214.5 -210t-80.5 -297.5q0 -139 60.5 -261.5t165.5 -203.5q154 -120 357 -120q176 0 327 103l149 -202q-217 -149 -473 -149
q-275 0 -499 160q-162 119 -252.5 294.5t-90.5 378.5q0 165 66 318t178 265t268 179.5t328 67.5q165 0 319 -64t269 -173.5t184.5 -265t69.5 -327.5q0 -99 -25 -177.5t-64.5 -127.5t-92.5 -81.5t-105.5 -45.5t-107.5 -13q-92 0 -170 42t-106 108q-25 -27 -35 -37t-37.5 -32
t-50 -31.5t-60 -18t-80.5 -8.5q-52 0 -102 13t-98.5 44t-85 76.5t-58.5 115t-22 155.5q0 90 28.5 168.5t76 132t109.5 84t129 30.5q25 0 49 -3.5t41 -7t36.5 -12.5t30 -14t26 -17t21 -16t19.5 -16.5t15 -13.5v103zM872 558q56 0 98 39t42 94t-41 97.5t-99 42.5
q-57 0 -98 -40.5t-41 -97.5q0 -55 39.5 -95t99.5 -40z" />
    <glyph glyph-name="A" unicode="A" horiz-adv-x="1454" 
d="M1084 0l-77 216h-560l-76 -216h-381l565 1434h346l563 -1434h-380zM728 996l-163 -459h325z" />
    <glyph glyph-name="B" unicode="B" horiz-adv-x="1385" 
d="M485 1117v-236h221q60 0 85 10q34 14 56 41.5t22 65.5q0 37 -21.5 65t-56.5 42q-29 12 -85 12h-221zM894 335q37 15 60.5 45t23.5 71q0 40 -23 70.5t-61 45.5q-30 12 -92 12h-317v-256h318q59 0 91 12zM1128 777q203 -123 203 -348q0 -115 -54 -209.5t-147 -152.5
q-55 -34 -125.5 -50.5t-181.5 -16.5h-693v1434h563q110 0 179 -13.5t122 -42.5q103 -56 160 -157.5t57 -215.5q0 -128 -83 -228z" />
    <glyph glyph-name="C" unicode="C" horiz-adv-x="1534" 
d="M1154 622l341 -105q-65 -228 -258 -372.5t-444 -144.5q-154 0 -290 55t-233 149.5t-153.5 228t-56.5 284.5t56 284t153 228t233.5 150t291.5 55q247 0 437 -134.5t262 -373.5l-339 -109q-43 136 -135.5 212.5t-226.5 76.5q-165 0 -266.5 -111t-101.5 -278
q0 -168 102 -278t266 -110q136 0 227.5 77.5t134.5 215.5z" />
    <glyph glyph-name="D" unicode="D" horiz-adv-x="1476" 
d="M651 330q117 0 194 37q99 46 156 141t57 212q0 116 -56.5 210t-155.5 140q-77 36 -195 36h-163v-776h163zM650 1434q141 0 256 -35q225 -70 367.5 -255.5t142.5 -427.5t-142 -427.5t-367 -254.5q-113 -34 -257 -34h-520v1434h520z" />
    <glyph glyph-name="E" unicode="E" horiz-adv-x="1259" 
d="M130 1434h1038v-326h-680v-166h514v-321h-514v-291h680v-330h-1038v1434z" />
    <glyph glyph-name="F" unicode="F" horiz-adv-x="1236" 
d="M130 1434h1038v-326h-680v-167h514v-323h-514v-618h-358v1434z" />
    <glyph glyph-name="G" unicode="G" 
d="M1248 1287l-199 -275q-128 95 -254 95q-166 0 -269.5 -112t-103.5 -279q0 -160 103.5 -274t269.5 -114q129 0 229.5 74.5t139.5 210.5h-419v330h746q35 -117 35 -231q0 -199 -94.5 -362t-262 -256.5t-374.5 -93.5q-200 0 -367.5 90t-267.5 255t-100 371q0 200 95 364.5
t264 259t376 94.5q237 0 453 -147z" />
    <glyph glyph-name="H" unicode="H" horiz-adv-x="1531" 
d="M130 1434h360v-483h551v483h360v-1434h-360v621h-551v-621h-360v1434z" />
    <glyph glyph-name="I" unicode="I" horiz-adv-x="620" 
d="M130 0v1434h360v-1434h-360z" />
    <glyph glyph-name="J" unicode="J" horiz-adv-x="854" 
d="M-19 71l164 316q56 -31 101 -31q44 0 73.5 26t40.5 63q8 28 8 101v887h359v-829q0 -160 -18 -235q-39 -161 -169 -265t-304 -104q-130 0 -255 71z" />
    <glyph glyph-name="K" unicode="K" horiz-adv-x="1411" 
d="M842 1433h454l-465 -527l595 -907h-424l-411 641l-104 -119v-522h-357v1434h357v-444z" />
    <glyph glyph-name="L" unicode="L" horiz-adv-x="1207" 
d="M130 1434h360v-1101h675v-333h-1035v1434z" />
    <glyph glyph-name="M" unicode="M" horiz-adv-x="1839" 
d="M130 1434h205l585 -667l587 667h202v-1434h-356v778l-433 -495l-433 495v-778h-357v1434z" />
    <glyph glyph-name="N" unicode="N" horiz-adv-x="1581" 
d="M1451 0h-203l-760 809v-809h-358v1434h202l761 -809v809h358v-1434z" />
    <glyph glyph-name="O" unicode="O" 
d="M793 0q-156 0 -293 55.5t-233 151t-151.5 228t-55.5 282.5t55.5 282.5t151.5 228t233 151t293 55.5t293 -55.5t233 -151t151.5 -228t55.5 -282.5t-55.5 -282.5t-151.5 -228t-233 -151t-293 -55.5zM793 1106q-167 0 -268 -111t-101 -278t101 -277.5t268 -110.5t268 110.5
t101 277.5t-101 278t-268 111z" />
    <glyph glyph-name="P" unicode="P" horiz-adv-x="1374" 
d="M1141 1365q92 -58 144.5 -154.5t52.5 -219.5q0 -119 -53 -216t-146 -156q-109 -69 -283 -69h-366v-550h-360v1434h726q177 0 285 -69zM909 888q75 31 75 103t-75 103q-25 11 -82 11h-338v-228h338q56 0 82 11z" />
    <glyph glyph-name="Q" unicode="Q" horiz-adv-x="1600" 
d="M1525 717q0 -269 -165 -461l180 -240l-289 -213l-181 250q-132 -53 -277 -53q-209 0 -377 94.5t-262 258.5t-94 364t94 364t262 258.5t377 94.5q156 0 292.5 -55.5t233 -151t151.5 -228t55 -282.5zM1161 717q0 167 -100.5 278t-267.5 111q-168 0 -268.5 -111t-100.5 -278
t100.5 -277.5t268.5 -110.5q167 0 267.5 110.5t100.5 277.5z" />
    <glyph glyph-name="R" unicode="R" horiz-adv-x="1441" 
d="M489 0h-359v1434h726q177 0 285 -69q92 -58 144.5 -154.5t52.5 -219.5q0 -159 -94 -278q-61 -75 -166 -118l357 -595h-416l-316 550h-214v-550zM489 877h338q56 0 82 11q75 31 75 103t-75 103q-25 11 -82 11h-338v-228z" />
    <glyph glyph-name="S" unicode="S" horiz-adv-x="1274" 
d="M43 252l213 259q207 -181 409 -181q50 0 96 9.5t82 36t36 66.5q0 20 -9 36.5t-30 29t-41 21.5t-58 18.5t-63.5 14.5t-74.5 14.5t-76 14.5q-79 16 -140 34.5t-126 51t-107.5 73.5t-70 104t-27.5 141q0 191 140.5 315t386.5 124q296 0 548 -190l-202 -257q-73 58 -167 91
t-183 33q-69 0 -121.5 -20t-52.5 -64q0 -17 8 -30.5t28.5 -25t39.5 -19t59 -16t67.5 -13.5t82.5 -14q60 -10 108 -20t106.5 -29t102.5 -41.5t88 -58t72.5 -78.5t46 -103t17.5 -131q0 -128 -74.5 -231t-202.5 -160t-284 -57q-152 0 -314 61t-313 191z" />
    <glyph glyph-name="T" unicode="T" horiz-adv-x="1388" 
d="M60 1434h1268v-330h-455v-1104h-360v1104h-453v330z" />
    <glyph glyph-name="U" unicode="U" horiz-adv-x="1500" 
d="M1029 1434h359v-676q0 -169 -14 -240q-45 -232 -211.5 -375.5t-411.5 -143.5t-412 143.5t-212 375.5q-15 76 -15 240v676h360v-761q0 -61 18 -130q27 -95 91.5 -153t169.5 -58q104 0 169 58.5t92 152.5q17 60 17 130v761z" />
    <glyph glyph-name="V" unicode="V" horiz-adv-x="1497" 
d="M1114 1434h394l-580 -1434h-358l-581 1434h394l366 -963z" />
    <glyph glyph-name="W" unicode="W" horiz-adv-x="1958" 
d="M7 1434h372l210 -843l241 843h298l240 -843l210 843h373l-381 -1434h-335l-256 804l-256 -804h-336z" />
    <glyph glyph-name="X" unicode="X" horiz-adv-x="1521" 
d="M7 0l544 756l-490 678h436l263 -397l263 397h437l-491 -678l545 -756h-443l-311 473l-310 -473h-443z" />
    <glyph glyph-name="Y" unicode="Y" horiz-adv-x="1372" 
d="M507 0v533l-520 901h411l288 -538l286 538h413l-520 -901v-533h-358z" />
    <glyph glyph-name="Z" unicode="Z" horiz-adv-x="1341" 
d="M108 1104v330h1127v-186l-640 -918h658v-330h-1165v188l639 916h-619z" />
    <glyph glyph-name="bracketleft" unicode="[" horiz-adv-x="875" 
d="M140 1707h623v-330h-283v-1335h283v-329h-623v1994z" />
    <glyph glyph-name="backslash" unicode="\" horiz-adv-x="1368" 
d="M39 1708h377l913 -1995h-377z" />
    <glyph glyph-name="bracketright" unicode="]" horiz-adv-x="875" 
d="M112 1707h623v-1994h-623v329h283v1335h-283v330z" />
    <glyph glyph-name="asciicircum" unicode="^" horiz-adv-x="896" 
d="M0 724l310 710h275l311 -710h-315l-133 366l-135 -366h-313z" />
    <glyph glyph-name="underscore" unicode="_" horiz-adv-x="1198" 
d="M0 -384v294h1198v-294h-1198z" />
    <glyph glyph-name="grave" unicode="`" horiz-adv-x="617" 
d="M278 1858l125 -322h-255l-254 322h384z" />
    <glyph glyph-name="a" unicode="a" horiz-adv-x="1454" 
d="M1084 0l-77 216h-560l-76 -216h-381l565 1434h346l563 -1434h-380zM728 996l-163 -459h325z" />
    <glyph glyph-name="b" unicode="b" horiz-adv-x="1385" 
d="M485 1117v-236h221q60 0 85 10q34 14 56 41.5t22 65.5q0 37 -21.5 65t-56.5 42q-29 12 -85 12h-221zM894 335q37 15 60.5 45t23.5 71q0 40 -23 70.5t-61 45.5q-30 12 -92 12h-317v-256h318q59 0 91 12zM1128 777q203 -123 203 -348q0 -115 -54 -209.5t-147 -152.5
q-55 -34 -125.5 -50.5t-181.5 -16.5h-693v1434h563q110 0 179 -13.5t122 -42.5q103 -56 160 -157.5t57 -215.5q0 -128 -83 -228z" />
    <glyph glyph-name="c" unicode="c" horiz-adv-x="1534" 
d="M1154 622l341 -105q-65 -228 -258 -372.5t-444 -144.5q-154 0 -290 55t-233 149.5t-153.5 228t-56.5 284.5t56 284t153 228t233.5 150t291.5 55q247 0 437 -134.5t262 -373.5l-339 -109q-43 136 -135.5 212.5t-226.5 76.5q-165 0 -266.5 -111t-101.5 -278
q0 -168 102 -278t266 -110q136 0 227.5 77.5t134.5 215.5z" />
    <glyph glyph-name="d" unicode="d" horiz-adv-x="1476" 
d="M651 330q117 0 194 37q99 46 156 141t57 212q0 116 -56.5 210t-155.5 140q-77 36 -195 36h-163v-776h163zM650 1434q141 0 256 -35q225 -70 367.5 -255.5t142.5 -427.5t-142 -427.5t-367 -254.5q-113 -34 -257 -34h-520v1434h520z" />
    <glyph glyph-name="e" unicode="e" horiz-adv-x="1259" 
d="M130 1434h1038v-326h-680v-166h514v-321h-514v-291h680v-330h-1038v1434z" />
    <glyph glyph-name="f" unicode="f" horiz-adv-x="1236" 
d="M130 1434h1038v-326h-680v-167h514v-323h-514v-618h-358v1434z" />
    <glyph glyph-name="g" unicode="g" 
d="M1248 1287l-199 -275q-128 95 -254 95q-166 0 -269.5 -112t-103.5 -279q0 -160 103.5 -274t269.5 -114q129 0 229.5 74.5t139.5 210.5h-419v330h746q35 -117 35 -231q0 -199 -94.5 -362t-262 -256.5t-374.5 -93.5q-200 0 -367.5 90t-267.5 255t-100 371q0 200 95 364.5
t264 259t376 94.5q237 0 453 -147z" />
    <glyph glyph-name="h" unicode="h" horiz-adv-x="1531" 
d="M130 1434h360v-483h551v483h360v-1434h-360v621h-551v-621h-360v1434z" />
    <glyph glyph-name="i" unicode="i" horiz-adv-x="620" 
d="M130 0v1434h360v-1434h-360z" />
    <glyph glyph-name="j" unicode="j" horiz-adv-x="854" 
d="M-19 71l164 316q56 -31 101 -31q44 0 73.5 26t40.5 63q8 28 8 101v887h359v-829q0 -160 -18 -235q-39 -161 -169 -265t-304 -104q-130 0 -255 71z" />
    <glyph glyph-name="k" unicode="k" horiz-adv-x="1411" 
d="M842 1433h454l-465 -527l595 -907h-424l-411 641l-104 -119v-522h-357v1434h357v-444z" />
    <glyph glyph-name="l" unicode="l" horiz-adv-x="1207" 
d="M130 1434h360v-1101h675v-333h-1035v1434z" />
    <glyph glyph-name="m" unicode="m" horiz-adv-x="1839" 
d="M130 1434h205l585 -667l587 667h202v-1434h-356v778l-433 -495l-433 495v-778h-357v1434z" />
    <glyph glyph-name="n" unicode="n" horiz-adv-x="1581" 
d="M1451 0h-203l-760 809v-809h-358v1434h202l761 -809v809h358v-1434z" />
    <glyph glyph-name="o" unicode="o" 
d="M793 0q-156 0 -293 55.5t-233 151t-151.5 228t-55.5 282.5t55.5 282.5t151.5 228t233 151t293 55.5t293 -55.5t233 -151t151.5 -228t55.5 -282.5t-55.5 -282.5t-151.5 -228t-233 -151t-293 -55.5zM793 1106q-167 0 -268 -111t-101 -278t101 -277.5t268 -110.5t268 110.5
t101 277.5t-101 278t-268 111z" />
    <glyph glyph-name="p" unicode="p" horiz-adv-x="1374" 
d="M1141 1365q92 -58 144.5 -154.5t52.5 -219.5q0 -119 -53 -216t-146 -156q-109 -69 -283 -69h-366v-550h-360v1434h726q177 0 285 -69zM909 888q75 31 75 103t-75 103q-25 11 -82 11h-338v-228h338q56 0 82 11z" />
    <glyph glyph-name="q" unicode="q" horiz-adv-x="1600" 
d="M1525 717q0 -269 -165 -461l180 -240l-289 -213l-181 250q-132 -53 -277 -53q-209 0 -377 94.5t-262 258.5t-94 364t94 364t262 258.5t377 94.5q156 0 292.5 -55.5t233 -151t151.5 -228t55 -282.5zM1161 717q0 167 -100.5 278t-267.5 111q-168 0 -268.5 -111t-100.5 -278
t100.5 -277.5t268.5 -110.5q167 0 267.5 110.5t100.5 277.5z" />
    <glyph glyph-name="r" unicode="r" horiz-adv-x="1441" 
d="M489 0h-359v1434h726q177 0 285 -69q92 -58 144.5 -154.5t52.5 -219.5q0 -159 -94 -278q-61 -75 -166 -118l357 -595h-416l-316 550h-214v-550zM489 877h338q56 0 82 11q75 31 75 103t-75 103q-25 11 -82 11h-338v-228z" />
    <glyph glyph-name="s" unicode="s" horiz-adv-x="1274" 
d="M43 252l213 259q207 -181 409 -181q50 0 96 9.5t82 36t36 66.5q0 20 -9 36.5t-30 29t-41 21.5t-58 18.5t-63.5 14.5t-74.5 14.5t-76 14.5q-79 16 -140 34.5t-126 51t-107.5 73.5t-70 104t-27.5 141q0 191 140.5 315t386.5 124q296 0 548 -190l-202 -257q-73 58 -167 91
t-183 33q-69 0 -121.5 -20t-52.5 -64q0 -17 8 -30.5t28.5 -25t39.5 -19t59 -16t67.5 -13.5t82.5 -14q60 -10 108 -20t106.5 -29t102.5 -41.5t88 -58t72.5 -78.5t46 -103t17.5 -131q0 -128 -74.5 -231t-202.5 -160t-284 -57q-152 0 -314 61t-313 191z" />
    <glyph glyph-name="t" unicode="t" horiz-adv-x="1388" 
d="M60 1434h1268v-330h-455v-1104h-360v1104h-453v330z" />
    <glyph glyph-name="u" unicode="u" horiz-adv-x="1500" 
d="M1029 1434h359v-676q0 -169 -14 -240q-45 -232 -211.5 -375.5t-411.5 -143.5t-412 143.5t-212 375.5q-15 76 -15 240v676h360v-761q0 -61 18 -130q27 -95 91.5 -153t169.5 -58q104 0 169 58.5t92 152.5q17 60 17 130v761z" />
    <glyph glyph-name="v" unicode="v" horiz-adv-x="1497" 
d="M1114 1434h394l-580 -1434h-358l-581 1434h394l366 -963z" />
    <glyph glyph-name="w" unicode="w" horiz-adv-x="1958" 
d="M7 1434h372l210 -843l241 843h298l240 -843l210 843h373l-381 -1434h-335l-256 804l-256 -804h-336z" />
    <glyph glyph-name="x" unicode="x" horiz-adv-x="1521" 
d="M7 0l544 756l-490 678h436l263 -397l263 397h437l-491 -678l545 -756h-443l-311 473l-310 -473h-443z" />
    <glyph glyph-name="y" unicode="y" horiz-adv-x="1372" 
d="M507 0v533l-520 901h411l288 -538l286 538h413l-520 -901v-533h-358z" />
    <glyph glyph-name="z" unicode="z" horiz-adv-x="1341" 
d="M108 1104v330h1127v-186l-640 -918h658v-330h-1165v188l639 916h-619z" />
    <glyph glyph-name="braceleft" unicode="{" horiz-adv-x="904" 
d="M539 427v-248q0 -140 235 -140v-331q-162 0 -291 49.5t-208.5 152t-79.5 244.5v287q0 56 -35.5 79.5t-99.5 26.5v324q64 3 99.5 26.5t35.5 79.5v288q0 107 45.5 192.5t125 140t184 83.5t224.5 29v-331q-235 0 -235 -140v-248q0 -31 -8 -67.5t-25.5 -78.5t-53 -79
t-83.5 -57q48 -20 83.5 -57t53 -79t25.5 -78.5t8 -67.5z" />
    <glyph glyph-name="bar" unicode="|" horiz-adv-x="606" 
d="M130 -287v1995h346v-1995h-346z" />
    <glyph glyph-name="braceright" unicode="}" horiz-adv-x="904" 
d="M365 427q0 31 8 67.5t25.5 78.5t53 79t83.5 57q-48 20 -83.5 57t-53 79t-25.5 78.5t-8 67.5v248q0 140 -235 140v331q120 0 224.5 -29t184 -83.5t125 -140t45.5 -192.5v-288q0 -56 35.5 -79.5t99.5 -26.5v-324q-64 -3 -99.5 -26.5t-35.5 -79.5v-287q0 -142 -79.5 -244.5
t-208.5 -152t-291 -49.5v331q235 0 235 140v248z" />
    <glyph glyph-name="asciitilde" unicode="~" horiz-adv-x="1220" 
d="M876 916h245q-1 -397 -301 -397q-72 0 -149 23t-137 46t-90 23q-40 0 -67.5 -27.5t-31.5 -73.5h-246q3 397 301 397q73 0 150 -23t136.5 -46t89.5 -23q40 0 68 27.5t32 73.5z" />
    <glyph glyph-name="exclamdown" unicode="&#xa1;" horiz-adv-x="612" 
d="M478 1095h-344v339h344v-339zM453 971l39 -971h-372l37 971h296z" />
    <glyph glyph-name="cent" unicode="&#xa2;" horiz-adv-x="1092" 
d="M707 -200h-293v217q-162 45 -268 176t-106 311q0 181 102.5 314t271.5 176v217h292v-218q123 -35 213.5 -121.5t127.5 -216.5l-318 -95q-14 67 -60 109.5t-114 42.5q-82 0 -126 -58t-44 -150q0 -86 45 -146t125 -60q136 0 174 153l318 -98q-33 -119 -123 -209t-217 -126
v-218z" />
    <glyph glyph-name="sterling" unicode="&#xa3;" horiz-adv-x="1190" 
d="M80 596v293h177q-22 88 -22 163q0 184 120.5 287t327.5 103q200 0 452 -99l-122 -296q-158 72 -271 72q-65 0 -108 -25.5t-43 -79.5q0 -27 20 -125h375v-293h-320q-4 -69 -40.5 -139.5t-102.5 -124.5h589v-332h-1028v334q93 52 153.5 113.5t85.5 148.5h-243z" />
    <glyph glyph-name="currency" unicode="&#xa4;" horiz-adv-x="1278" 
d="M456 713q0 -80 52.5 -134t130.5 -54q79 0 131 54t52 134q0 81 -52 135t-131 54q-78 0 -130.5 -54.5t-52.5 -134.5zM1125 713q0 -115 -61 -215l161 -161l-211 -210l-167 167q-97 -51 -208 -51t-208 51l-168 -167l-210 210l161 161q-60 93 -60 215q0 121 60 215l-161 161
l210 210l168 -167q98 50 208 50t208 -50l167 167l211 -210l-161 -161q61 -101 61 -215z" />
    <glyph glyph-name="yen" unicode="&#xa5;" horiz-adv-x="1454" 
d="M1426 1434l-384 -655h245v-253h-382v-88h382v-245h-381v-193h-358v193h-381v245h382v88h-382v253h245l-384 655h412l287 -542l286 542h413z" />
    <glyph glyph-name="section" unicode="&#xa7;" horiz-adv-x="1353" 
d="M443 784q0 -32 24 -55t74 -38t96 -23.5t122 -20.5t120 -21q52 28 52 84q0 23 -12 42t-37.5 32.5t-53.5 24t-71 19.5t-79 15.5t-88 15.5t-88 16q-59 -31 -59 -91zM1275 730q0 -136 -120 -253q98 -98 98 -259q0 -126 -74 -228t-200 -158.5t-278 -56.5q-148 0 -307.5 59.5
t-309.5 185.5q18 21 107 126.5t106 124.5q92 -82 195.5 -127t200.5 -45q84 0 147.5 30t63.5 87q0 20 -10 36.5t-31.5 29t-44.5 21.5t-60.5 17.5t-68 14t-77.5 14t-79 15.5q-72 16 -129 34t-116 49.5t-98 71t-64 99t-25 133.5q0 150 129 255q-107 95 -107 259
q0 189 150.5 314t388.5 125q139 0 285.5 -50t282.5 -152l-207 -251q-80 64 -175.5 98t-182.5 34q-79 0 -136.5 -26.5t-57.5 -76.5q0 -28 17 -48t66.5 -35.5t81.5 -22.5t117 -22q25 -5 38 -7q79 -15 139 -31t128.5 -48.5t113 -74.5t74 -109t29.5 -152z" />
    <glyph glyph-name="dieresis" unicode="&#xa8;" horiz-adv-x="1215" 
d="M689 1833h299v-288h-299v288zM240 1833h299v-288h-299v288z" />
    <glyph glyph-name="copyright" unicode="&#xa9;" horiz-adv-x="1838" 
d="M918 1562q228 0 425 -114t313 -308.5t116 -419.5q0 -169 -68.5 -325t-184 -269t-273 -180.5t-328.5 -67.5q-172 0 -330 67.5t-272.5 181t-182.5 269t-68 324.5t68 324.5t182.5 269t272.5 181t330 67.5zM918 140q159 4 293.5 80.5t213.5 208.5t78 291q1 119 -45.5 225.5
t-125.5 182.5t-187 122t-227 49q-158 0 -293 -78.5t-214 -212t-79 -288.5q0 -156 79 -289.5t214 -212t293 -78.5zM1081 665l296 -88q-46 -147 -165 -228t-272 -81q-139 0 -249 52.5t-175 156.5t-65 243q0 105 37.5 191t103.5 142.5t155.5 87t192.5 30.5q153 0 272 -81
t165 -228l-296 -87q-35 120 -141 120q-162 0 -162 -175q0 -176 162 -176q106 0 141 121z" />
    <glyph glyph-name="ordfeminine" unicode="&#xaa;" horiz-adv-x="920" 
d="M458 1185q-58 0 -92 -41t-34 -95t34 -94.5t92 -40.5q56 0 91 41t35 94q0 52 -35 94t-91 42zM581 662v88q-71 -95 -201 -95q-70 0 -128.5 26t-97 67t-65 94t-38 105t-11.5 102q0 49 11.5 101t38 104.5t65 94t97 67.5t128.5 26q132 0 201 -93v86h281v-773h-281z" />
    <glyph glyph-name="guillemotleft" unicode="&#xab;" horiz-adv-x="1275" 
d="M332 1114h361l-276 -407l276 -407h-361l-264 407zM809 1114h360l-276 -407l276 -407h-360l-263 407z" />
    <glyph glyph-name="uni00AD" unicode="&#xad;" horiz-adv-x="1034" 
d="M128 535v328h778v-328h-778z" />
    <glyph glyph-name="registered" unicode="&#xae;" horiz-adv-x="1037" 
d="M450 1295v-50h113q34 0 34 26q0 24 -34 24h-113zM316 1418h264q63 0 104.5 -39.5t41.5 -107.5q0 -97 -86 -131l92 -186h-148l-83 176h-51v-176h-134v464zM519 1623q186 0 312 -126t126 -312q0 -187 -126 -313t-312 -126q-187 0 -313 126t-126 313q0 186 126 312t313 126z
M519 867q136 0 226.5 90.5t90.5 227.5q0 136 -90.5 226.5t-226.5 90.5t-227 -90.5t-91 -226.5q0 -137 90.5 -227.5t227.5 -90.5z" />
    <glyph glyph-name="degree" unicode="&#xb0;" horiz-adv-x="801" 
d="M400 982q50 0 77.5 32.5t27.5 81.5q0 52 -30.5 83.5t-74.5 31.5q-48 0 -76.5 -33t-28.5 -82t29 -81.5t76 -32.5zM400 1434q152 0 246.5 -97.5t94.5 -240.5q0 -150 -98.5 -243.5t-242.5 -93.5q-152 0 -246 96.5t-94 240.5q0 147 97.5 242.5t242.5 95.5z" />
    <glyph glyph-name="acute" unicode="&#xb4;" horiz-adv-x="617" 
d="M103 1536l125 322h384l-254 -322h-255z" />
    <glyph glyph-name="mu" unicode="&#xb5;" horiz-adv-x="1302" 
d="M857 1012h330v-1012h-330v101q-106 -101 -246 -101q-91 0 -165 52v-662h-331v1622h331v-488q0 -93 58 -154.5t148 -61.5q89 0 147 61.5t58 154.5v488z" />
    <glyph glyph-name="paragraph" unicode="&#xb6;" horiz-adv-x="1454" 
d="M530 -252v736q-199 1 -336.5 139.5t-137.5 336.5q0 196 137.5 334.5t336.5 139.5h794v-1686h-340v1349h-118v-1349h-336z" />
    <glyph glyph-name="middot" unicode="&#xb7;" horiz-adv-x="585" 
d="M113 530v357h359v-357h-359z" />
    <glyph glyph-name="cedilla" unicode="&#xb8;" horiz-adv-x="626" 
d="M21 -378l37 138q41 -12 87.5 -20t95.5 -11t81 9.5t32 41.5q0 36 -47.5 50t-107.5 9l-40 63l66 143h147l-48 -97q132 -1 199.5 -51.5t67.5 -127.5q0 -80 -66 -133t-193 -63t-311 49z" />
    <glyph glyph-name="ordmasculine" unicode="&#xba;" horiz-adv-x="899" 
d="M449 1183q-52 0 -88 -38t-36 -97q0 -58 36 -97t88 -39q53 0 89 39t36 97t-36 96.5t-89 38.5zM40 1048q0 170 116.5 282t292.5 112t293 -112.5t117 -281.5t-117 -281.5t-293 -112.5t-292.5 112t-116.5 282z" />
    <glyph glyph-name="guillemotright" unicode="&#xbb;" horiz-adv-x="1275" 
d="M582 1114h361l264 -407l-264 -407h-361l276 407zM106 1114h360l263 -407l-263 -407h-360l276 407z" />
    <glyph glyph-name="questiondown" unicode="&#xbf;" horiz-adv-x="1115" 
d="M401 974h310q3 -98 -20 -170.5t-57.5 -113t-87.5 -76.5q-9 -6 -41 -27t-44 -31t-32 -29t-28 -38.5t-8 -42.5q0 -53 45.5 -84.5t118.5 -31.5q157 0 165 151h362q-11 -219 -154.5 -350t-377.5 -131q-227 0 -372.5 122.5t-145.5 311.5q0 100 43 169t122 123q13 9 43.5 28.5
t43 28.5t35.5 27t33.5 32t23 35t17.5 44.5t6 52.5zM385 1098v338h344v-338h-344z" />
    <glyph glyph-name="Agrave" unicode="&#xc0;" horiz-adv-x="1454" 
d="M1084 0l-77 216h-560l-76 -216h-381l565 1434h346l563 -1434h-380zM753 1858l125 -322h-255l-254 322h384zM728 996l-163 -459h325z" />
    <glyph glyph-name="Aacute" unicode="&#xc1;" horiz-adv-x="1454" 
d="M1084 0l-77 216h-560l-76 -216h-381l565 1434h346l563 -1434h-380zM578 1536l125 322h384l-254 -322h-255zM728 996l-163 -459h325z" />
    <glyph glyph-name="Acircumflex" unicode="&#xc2;" horiz-adv-x="1454" 
d="M1084 0l-77 216h-560l-76 -216h-381l565 1434h346l563 -1434h-380zM624 1537h-291l245 319h300l247 -319h-292l-105 146zM728 996l-163 -459h325z" />
    <glyph glyph-name="Atilde" unicode="&#xc3;" horiz-adv-x="1454" 
d="M1084 0l-77 216h-560l-76 -216h-381l565 1434h346l563 -1434h-380zM292 1535q9 153 71.5 237.5t168.5 84.5q65 0 133.5 -19.5t121.5 -38.5t82 -19q72 0 90 76h206q-9 -153 -71.5 -238t-168.5 -85q-66 0 -134.5 19.5t-121.5 38.5t-82 19q-71 0 -90 -75h-205zM728 996
l-163 -459h325z" />
    <glyph glyph-name="Adieresis" unicode="&#xc4;" horiz-adv-x="1454" 
d="M1084 0l-77 216h-560l-76 -216h-381l565 1434h346l563 -1434h-380zM803 1833h299v-288h-299v288zM354 1833h299v-288h-299v288zM728 996l-163 -459h325z" />
    <glyph glyph-name="Aring" unicode="&#xc5;" horiz-adv-x="1453" 
d="M727 1842q121 2 211.5 -85t90.5 -210t-90 -211l524 -1336h-379l-78 216h-559l-77 -216h-380l525 1335q-91 88 -91 212q0 123 90.5 210t212.5 85zM727 996l-163 -459h326zM727 1656q-45 0 -76.5 -32t-31.5 -80t31.5 -81t76.5 -33q46 0 77 33t31 81t-31 80t-77 32z" />
    <glyph glyph-name="AE" unicode="&#xc6;" horiz-adv-x="2005" 
d="M1914 1108h-664v-166h498v-321h-498v-291h664v-330h-1022v216h-409l-99 -216h-391l676 1434h1245v-326zM892 1101l-261 -564h261v564z" />
    <glyph glyph-name="Ccedilla" unicode="&#xc7;" horiz-adv-x="1534" 
d="M526 -378l37 138q41 -12 87.5 -20t95.5 -11t81 9.5t32 41.5q0 36 -47.5 50t-107.5 9l-40 63l47 102q-186 18 -334.5 114.5t-232.5 253t-84 345.5q0 151 56 284t153 228t233.5 150t291.5 55q247 0 437 -134.5t262 -373.5l-339 -109q-43 136 -135.5 212.5t-226.5 76.5
q-165 0 -266.5 -111t-101.5 -278q0 -168 102 -278t266 -110q136 0 227.5 77.5t134.5 215.5l341 -105q-61 -213 -235 -354.5t-404 -160.5l-27 -54q132 -1 199.5 -51.5t67.5 -127.5q0 -80 -66 -133t-193 -63t-311 49z" />
    <glyph glyph-name="Egrave" unicode="&#xc8;" horiz-adv-x="1259" 
d="M130 1434h1038v-326h-680v-166h514v-321h-514v-291h680v-330h-1038v1434zM670 1858l125 -322h-255l-254 322h384z" />
    <glyph glyph-name="Eacute" unicode="&#xc9;" horiz-adv-x="1259" 
d="M130 1434h1038v-326h-680v-166h514v-321h-514v-291h680v-330h-1038v1434zM495 1536l125 322h384l-254 -322h-255z" />
    <glyph glyph-name="Ecircumflex" unicode="&#xca;" horiz-adv-x="1259" 
d="M130 1434h1038v-326h-680v-166h514v-321h-514v-291h680v-330h-1038v1434zM541 1537h-291l245 319h300l247 -319h-292l-105 146z" />
    <glyph glyph-name="Edieresis" unicode="&#xcb;" horiz-adv-x="1259" 
d="M130 1434h1038v-326h-680v-166h514v-321h-514v-291h680v-330h-1038v1434zM271 1833h299v-288h-299v288zM720 1833h299v-288h-299v288z" />
    <glyph glyph-name="Igrave" unicode="&#xcc;" horiz-adv-x="620" 
d="M130 0v1434h360v-1434h-360zM335 1858l125 -322h-255l-254 322h384z" />
    <glyph glyph-name="Iacute" unicode="&#xcd;" horiz-adv-x="620" 
d="M130 0v1434h360v-1434h-360zM160 1536l125 322h384l-254 -322h-255z" />
    <glyph glyph-name="Icircumflex" unicode="&#xce;" horiz-adv-x="620" 
d="M130 0v1434h360v-1434h-360zM206 1537h-291l245 319h300l247 -319h-292l-105 146z" />
    <glyph glyph-name="Idieresis" unicode="&#xcf;" horiz-adv-x="620" 
d="M130 0v1434h360v-1434h-360zM-64 1833h299v-288h-299v288zM385 1833h299v-288h-299v288z" />
    <glyph glyph-name="Eth" unicode="&#xd0;" horiz-adv-x="1544" 
d="M718 1436q141 0 256 -35q225 -70 367.5 -256t142.5 -428t-142 -428t-367 -255q-113 -34 -257 -34h-520v612h-162v314h162v510h520zM719 330q117 0 194 37q99 46 156 141.5t57 212.5t-56.5 211t-155.5 140q-77 36 -195 36h-164v-182h321v-314h-321v-282h164z" />
    <glyph glyph-name="Ntilde" unicode="&#xd1;" horiz-adv-x="1581" 
d="M1451 0h-203l-760 809v-809h-358v1434h202l761 -809v809h358v-1434zM332 1535q9 153 71.5 237.5t168.5 84.5q65 0 133.5 -19.5t121.5 -38.5t82 -19q72 0 90 76h206q-9 -153 -71.5 -238t-168.5 -85q-66 0 -134.5 19.5t-121.5 38.5t-82 19q-71 0 -90 -75h-205z" />
    <glyph glyph-name="Ograve" unicode="&#xd2;" 
d="M793 0q-156 0 -293 55.5t-233 151t-151.5 228t-55.5 282.5t55.5 282.5t151.5 228t233 151t293 55.5t293 -55.5t233 -151t151.5 -228t55.5 -282.5t-55.5 -282.5t-151.5 -228t-233 -151t-293 -55.5zM793 1106q-167 0 -268 -111t-101 -278t101 -277.5t268 -110.5t268 110.5
t101 277.5t-101 278t-268 111zM818 1858l125 -322h-255l-254 322h384z" />
    <glyph glyph-name="Oacute" unicode="&#xd3;" 
d="M793 0q-156 0 -293 55.5t-233 151t-151.5 228t-55.5 282.5t55.5 282.5t151.5 228t233 151t293 55.5t293 -55.5t233 -151t151.5 -228t55.5 -282.5t-55.5 -282.5t-151.5 -228t-233 -151t-293 -55.5zM793 1106q-167 0 -268 -111t-101 -278t101 -277.5t268 -110.5t268 110.5
t101 277.5t-101 278t-268 111zM643 1536l125 322h384l-254 -322h-255z" />
    <glyph glyph-name="Ocircumflex" unicode="&#xd4;" 
d="M793 0q-156 0 -293 55.5t-233 151t-151.5 228t-55.5 282.5t55.5 282.5t151.5 228t233 151t293 55.5t293 -55.5t233 -151t151.5 -228t55.5 -282.5t-55.5 -282.5t-151.5 -228t-233 -151t-293 -55.5zM793 1106q-167 0 -268 -111t-101 -278t101 -277.5t268 -110.5t268 110.5
t101 277.5t-101 278t-268 111zM689 1537h-291l245 319h300l247 -319h-292l-105 146z" />
    <glyph glyph-name="Otilde" unicode="&#xd5;" 
d="M793 0q-156 0 -293 55.5t-233 151t-151.5 228t-55.5 282.5t55.5 282.5t151.5 228t233 151t293 55.5t293 -55.5t233 -151t151.5 -228t55.5 -282.5t-55.5 -282.5t-151.5 -228t-233 -151t-293 -55.5zM793 1106q-167 0 -268 -111t-101 -278t101 -277.5t268 -110.5t268 110.5
t101 277.5t-101 278t-268 111zM357 1535q9 153 71.5 237.5t168.5 84.5q65 0 133.5 -19.5t121.5 -38.5t82 -19q72 0 90 76h206q-9 -153 -71.5 -238t-168.5 -85q-66 0 -134.5 19.5t-121.5 38.5t-82 19q-71 0 -90 -75h-205z" />
    <glyph glyph-name="Odieresis" unicode="&#xd6;" 
d="M793 0q-156 0 -293 55.5t-233 151t-151.5 228t-55.5 282.5t55.5 282.5t151.5 228t233 151t293 55.5t293 -55.5t233 -151t151.5 -228t55.5 -282.5t-55.5 -282.5t-151.5 -228t-233 -151t-293 -55.5zM793 1106q-167 0 -268 -111t-101 -278t101 -277.5t268 -110.5t268 110.5
t101 277.5t-101 278t-268 111zM868 1833h299v-288h-299v288zM419 1833h299v-288h-299v288z" />
    <glyph glyph-name="multiply" unicode="&#xd7;" horiz-adv-x="1037" 
d="M954 915l-217 -212l217 -211l-224 -225l-211 217l-212 -217l-225 225l217 211l-217 212l225 224l212 -217l211 217z" />
    <glyph glyph-name="Oslash" unicode="&#xd8;" horiz-adv-x="1585" 
d="M792 329q168 0 268.5 110.5t100.5 277.5q0 135 -65 242l-347 -628q28 -2 43 -2zM792 1106q-167 0 -267.5 -111t-100.5 -278q0 -133 64 -241l348 627q-21 3 -44 3zM313 170q-121 96 -187 238t-66 309q0 150 55 282.5t151 228.5t232 151.5t291 55.5q115 0 208 -39l59 107
h349l-134 -238q122 -96 188 -238t66 -310q0 -200 -94 -364t-261.5 -258.5t-373.5 -94.5q-114 0 -208 38l-59 -106h-349z" />
    <glyph glyph-name="Ugrave" unicode="&#xd9;" horiz-adv-x="1500" 
d="M1029 1434h359v-676q0 -169 -14 -240q-45 -232 -211.5 -375.5t-411.5 -143.5t-412 143.5t-212 375.5q-15 76 -15 240v676h360v-761q0 -61 18 -130q27 -95 91.5 -153t169.5 -58q104 0 169 58.5t92 152.5q17 60 17 130v761zM776 1858l125 -322h-255l-254 322h384z" />
    <glyph glyph-name="Uacute" unicode="&#xda;" horiz-adv-x="1500" 
d="M1029 1434h359v-676q0 -169 -14 -240q-45 -232 -211.5 -375.5t-411.5 -143.5t-412 143.5t-212 375.5q-15 76 -15 240v676h360v-761q0 -61 18 -130q27 -95 91.5 -153t169.5 -58q104 0 169 58.5t92 152.5q17 60 17 130v761zM601 1536l125 322h384l-254 -322h-255z" />
    <glyph glyph-name="Ucircumflex" unicode="&#xdb;" horiz-adv-x="1500" 
d="M1029 1434h359v-676q0 -169 -14 -240q-45 -232 -211.5 -375.5t-411.5 -143.5t-412 143.5t-212 375.5q-15 76 -15 240v676h360v-761q0 -61 18 -130q27 -95 91.5 -153t169.5 -58q104 0 169 58.5t92 152.5q17 60 17 130v761zM647 1537h-291l245 319h300l247 -319h-292
l-105 146z" />
    <glyph glyph-name="Udieresis" unicode="&#xdc;" horiz-adv-x="1500" 
d="M1029 1434h359v-676q0 -169 -14 -240q-45 -232 -211.5 -375.5t-411.5 -143.5t-412 143.5t-212 375.5q-15 76 -15 240v676h360v-761q0 -61 18 -130q27 -95 91.5 -153t169.5 -58q104 0 169 58.5t92 152.5q17 60 17 130v761zM377 1833h299v-288h-299v288zM826 1833h299v-288
h-299v288z" />
    <glyph glyph-name="Yacute" unicode="&#xdd;" horiz-adv-x="1372" 
d="M507 0v533l-520 901h411l288 -538l286 538h413l-520 -901v-533h-358zM536 1536l125 322h384l-254 -322h-255z" />
    <glyph glyph-name="Thorn" unicode="&#xde;" horiz-adv-x="1374" 
d="M1141 1096q92 -58 144.5 -154.5t52.5 -219.5q0 -119 -53 -216t-146 -156q-109 -69 -283 -69h-366v-281h-360v1434h359v-269h367q177 0 285 -69zM909 619q75 31 75 103t-75 103q-25 11 -82 11h-338v-228h338q56 0 82 11z" />
    <glyph glyph-name="germandbls" unicode="&#xdf;" horiz-adv-x="1507" 
d="M1034 873q102 -5 183 -42t130 -95t75 -128t26 -146q0 -90 -35 -171.5t-101.5 -147t-175 -104.5t-243.5 -39q-224 0 -406 151l205 282q70 -55 121.5 -78.5t106.5 -23.5q81 0 126 40t45 100q0 61 -41.5 100t-113.5 39q-86 0 -208 -63l-166 254l330 282q-65 24 -133 24
q-106 0 -175 -55t-97 -157q-18 -62 -18 -130v-765h-356v676q0 170 15 240q45 237 214.5 378.5t408.5 141.5q185 0 330.5 -90.5t225.5 -255.5z" />
    <glyph glyph-name="agrave" unicode="&#xe0;" horiz-adv-x="1454" 
d="M1084 0l-77 216h-560l-76 -216h-381l565 1434h346l563 -1434h-380zM753 1858l125 -322h-255l-254 322h384zM728 996l-163 -459h325z" />
    <glyph glyph-name="aacute" unicode="&#xe1;" horiz-adv-x="1454" 
d="M1084 0l-77 216h-560l-76 -216h-381l565 1434h346l563 -1434h-380zM578 1536l125 322h384l-254 -322h-255zM728 996l-163 -459h325z" />
    <glyph glyph-name="acircumflex" unicode="&#xe2;" horiz-adv-x="1454" 
d="M1084 0l-77 216h-560l-76 -216h-381l565 1434h346l563 -1434h-380zM624 1537h-291l245 319h300l247 -319h-292l-105 146zM728 996l-163 -459h325z" />
    <glyph glyph-name="atilde" unicode="&#xe3;" horiz-adv-x="1454" 
d="M1084 0l-77 216h-560l-76 -216h-381l565 1434h346l563 -1434h-380zM292 1535q9 153 71.5 237.5t168.5 84.5q65 0 133.5 -19.5t121.5 -38.5t82 -19q72 0 90 76h206q-9 -153 -71.5 -238t-168.5 -85q-66 0 -134.5 19.5t-121.5 38.5t-82 19q-71 0 -90 -75h-205zM728 996
l-163 -459h325z" />
    <glyph glyph-name="adieresis" unicode="&#xe4;" horiz-adv-x="1454" 
d="M1084 0l-77 216h-560l-76 -216h-381l565 1434h346l563 -1434h-380zM803 1833h299v-288h-299v288zM354 1833h299v-288h-299v288zM728 996l-163 -459h325z" />
    <glyph glyph-name="aring" unicode="&#xe5;" horiz-adv-x="1453" 
d="M727 1842q121 2 211.5 -85t90.5 -210t-90 -211l524 -1336h-379l-78 216h-559l-77 -216h-380l525 1335q-91 88 -91 212q0 123 90.5 210t212.5 85zM727 996l-163 -459h326zM727 1656q-45 0 -76.5 -32t-31.5 -80t31.5 -81t76.5 -33q46 0 77 33t31 81t-31 80t-77 32z" />
    <glyph glyph-name="ae" unicode="&#xe6;" horiz-adv-x="2005" 
d="M1914 1108h-664v-166h498v-321h-498v-291h664v-330h-1022v216h-409l-99 -216h-391l676 1434h1245v-326zM892 1101l-261 -564h261v564z" />
    <glyph glyph-name="ccedilla" unicode="&#xe7;" horiz-adv-x="1534" 
d="M526 -378l37 138q41 -12 87.5 -20t95.5 -11t81 9.5t32 41.5q0 36 -47.5 50t-107.5 9l-40 63l47 102q-186 18 -334.5 114.5t-232.5 253t-84 345.5q0 151 56 284t153 228t233.5 150t291.5 55q247 0 437 -134.5t262 -373.5l-339 -109q-43 136 -135.5 212.5t-226.5 76.5
q-165 0 -266.5 -111t-101.5 -278q0 -168 102 -278t266 -110q136 0 227.5 77.5t134.5 215.5l341 -105q-61 -213 -235 -354.5t-404 -160.5l-27 -54q132 -1 199.5 -51.5t67.5 -127.5q0 -80 -66 -133t-193 -63t-311 49z" />
    <glyph glyph-name="egrave" unicode="&#xe8;" horiz-adv-x="1259" 
d="M130 1434h1038v-326h-680v-166h514v-321h-514v-291h680v-330h-1038v1434zM670 1858l125 -322h-255l-254 322h384z" />
    <glyph glyph-name="eacute" unicode="&#xe9;" horiz-adv-x="1259" 
d="M130 1434h1038v-326h-680v-166h514v-321h-514v-291h680v-330h-1038v1434zM495 1536l125 322h384l-254 -322h-255z" />
    <glyph glyph-name="ecircumflex" unicode="&#xea;" horiz-adv-x="1259" 
d="M130 1434h1038v-326h-680v-166h514v-321h-514v-291h680v-330h-1038v1434zM541 1537h-291l245 319h300l247 -319h-292l-105 146z" />
    <glyph glyph-name="edieresis" unicode="&#xeb;" horiz-adv-x="1259" 
d="M130 1434h1038v-326h-680v-166h514v-321h-514v-291h680v-330h-1038v1434zM271 1833h299v-288h-299v288zM720 1833h299v-288h-299v288z" />
    <glyph glyph-name="igrave" unicode="&#xec;" horiz-adv-x="620" 
d="M130 0v1434h360v-1434h-360zM335 1858l125 -322h-255l-254 322h384z" />
    <glyph glyph-name="iacute" unicode="&#xed;" horiz-adv-x="620" 
d="M130 0v1434h360v-1434h-360zM160 1536l125 322h384l-254 -322h-255z" />
    <glyph glyph-name="icircumflex" unicode="&#xee;" horiz-adv-x="620" 
d="M130 0v1434h360v-1434h-360zM206 1537h-291l245 319h300l247 -319h-292l-105 146z" />
    <glyph glyph-name="idieresis" unicode="&#xef;" horiz-adv-x="620" 
d="M130 0v1434h360v-1434h-360zM-64 1833h299v-288h-299v288zM385 1833h299v-288h-299v288z" />
    <glyph glyph-name="eth" unicode="&#xf0;" horiz-adv-x="1544" 
d="M718 1436q141 0 256 -35q225 -70 367.5 -256t142.5 -428t-142 -428t-367 -255q-113 -34 -257 -34h-520v612h-162v314h162v510h520zM719 330q117 0 194 37q99 46 156 141.5t57 212.5t-56.5 211t-155.5 140q-77 36 -195 36h-164v-182h321v-314h-321v-282h164z" />
    <glyph glyph-name="ntilde" unicode="&#xf1;" horiz-adv-x="1581" 
d="M1451 0h-203l-760 809v-809h-358v1434h202l761 -809v809h358v-1434zM332 1535q9 153 71.5 237.5t168.5 84.5q65 0 133.5 -19.5t121.5 -38.5t82 -19q72 0 90 76h206q-9 -153 -71.5 -238t-168.5 -85q-66 0 -134.5 19.5t-121.5 38.5t-82 19q-71 0 -90 -75h-205z" />
    <glyph glyph-name="ograve" unicode="&#xf2;" 
d="M793 0q-156 0 -293 55.5t-233 151t-151.5 228t-55.5 282.5t55.5 282.5t151.5 228t233 151t293 55.5t293 -55.5t233 -151t151.5 -228t55.5 -282.5t-55.5 -282.5t-151.5 -228t-233 -151t-293 -55.5zM793 1106q-167 0 -268 -111t-101 -278t101 -277.5t268 -110.5t268 110.5
t101 277.5t-101 278t-268 111zM818 1858l125 -322h-255l-254 322h384z" />
    <glyph glyph-name="oacute" unicode="&#xf3;" 
d="M793 0q-156 0 -293 55.5t-233 151t-151.5 228t-55.5 282.5t55.5 282.5t151.5 228t233 151t293 55.5t293 -55.5t233 -151t151.5 -228t55.5 -282.5t-55.5 -282.5t-151.5 -228t-233 -151t-293 -55.5zM793 1106q-167 0 -268 -111t-101 -278t101 -277.5t268 -110.5t268 110.5
t101 277.5t-101 278t-268 111zM643 1536l125 322h384l-254 -322h-255z" />
    <glyph glyph-name="ocircumflex" unicode="&#xf4;" 
d="M793 0q-156 0 -293 55.5t-233 151t-151.5 228t-55.5 282.5t55.5 282.5t151.5 228t233 151t293 55.5t293 -55.5t233 -151t151.5 -228t55.5 -282.5t-55.5 -282.5t-151.5 -228t-233 -151t-293 -55.5zM793 1106q-167 0 -268 -111t-101 -278t101 -277.5t268 -110.5t268 110.5
t101 277.5t-101 278t-268 111zM689 1537h-291l245 319h300l247 -319h-292l-105 146z" />
    <glyph glyph-name="otilde" unicode="&#xf5;" 
d="M793 0q-156 0 -293 55.5t-233 151t-151.5 228t-55.5 282.5t55.5 282.5t151.5 228t233 151t293 55.5t293 -55.5t233 -151t151.5 -228t55.5 -282.5t-55.5 -282.5t-151.5 -228t-233 -151t-293 -55.5zM793 1106q-167 0 -268 -111t-101 -278t101 -277.5t268 -110.5t268 110.5
t101 277.5t-101 278t-268 111zM357 1535q9 153 71.5 237.5t168.5 84.5q65 0 133.5 -19.5t121.5 -38.5t82 -19q72 0 90 76h206q-9 -153 -71.5 -238t-168.5 -85q-66 0 -134.5 19.5t-121.5 38.5t-82 19q-71 0 -90 -75h-205z" />
    <glyph glyph-name="odieresis" unicode="&#xf6;" 
d="M793 0q-156 0 -293 55.5t-233 151t-151.5 228t-55.5 282.5t55.5 282.5t151.5 228t233 151t293 55.5t293 -55.5t233 -151t151.5 -228t55.5 -282.5t-55.5 -282.5t-151.5 -228t-233 -151t-293 -55.5zM793 1106q-167 0 -268 -111t-101 -278t101 -277.5t268 -110.5t268 110.5
t101 277.5t-101 278t-268 111zM868 1833h299v-288h-299v288zM419 1833h299v-288h-299v288z" />
    <glyph glyph-name="divide" unicode="&#xf7;" horiz-adv-x="1037" 
d="M520 930q-71 0 -123 50.5t-52 123.5q0 69 51.5 121.5t123.5 52.5q69 0 121.5 -51t52.5 -123q0 -70 -51.5 -122t-122.5 -52zM520 130q-71 0 -123 50.5t-52 123.5q0 70 51 122t124 52q69 0 121.5 -51t52.5 -123q0 -69 -51.5 -121.5t-122.5 -52.5zM60 862h917v-317h-917v317
z" />
    <glyph glyph-name="oslash" unicode="&#xf8;" horiz-adv-x="1585" 
d="M792 329q168 0 268.5 110.5t100.5 277.5q0 135 -65 242l-347 -628q28 -2 43 -2zM792 1106q-167 0 -267.5 -111t-100.5 -278q0 -133 64 -241l348 627q-21 3 -44 3zM313 170q-121 96 -187 238t-66 309q0 150 55 282.5t151 228.5t232 151.5t291 55.5q115 0 208 -39l59 107
h349l-134 -238q122 -96 188 -238t66 -310q0 -200 -94 -364t-261.5 -258.5t-373.5 -94.5q-114 0 -208 38l-59 -106h-349z" />
    <glyph glyph-name="ugrave" unicode="&#xf9;" horiz-adv-x="1500" 
d="M1029 1434h359v-676q0 -169 -14 -240q-45 -232 -211.5 -375.5t-411.5 -143.5t-412 143.5t-212 375.5q-15 76 -15 240v676h360v-761q0 -61 18 -130q27 -95 91.5 -153t169.5 -58q104 0 169 58.5t92 152.5q17 60 17 130v761zM776 1858l125 -322h-255l-254 322h384z" />
    <glyph glyph-name="uacute" unicode="&#xfa;" horiz-adv-x="1500" 
d="M1029 1434h359v-676q0 -169 -14 -240q-45 -232 -211.5 -375.5t-411.5 -143.5t-412 143.5t-212 375.5q-15 76 -15 240v676h360v-761q0 -61 18 -130q27 -95 91.5 -153t169.5 -58q104 0 169 58.5t92 152.5q17 60 17 130v761zM601 1536l125 322h384l-254 -322h-255z" />
    <glyph glyph-name="ucircumflex" unicode="&#xfb;" horiz-adv-x="1500" 
d="M1029 1434h359v-676q0 -169 -14 -240q-45 -232 -211.5 -375.5t-411.5 -143.5t-412 143.5t-212 375.5q-15 76 -15 240v676h360v-761q0 -61 18 -130q27 -95 91.5 -153t169.5 -58q104 0 169 58.5t92 152.5q17 60 17 130v761zM647 1537h-291l245 319h300l247 -319h-292
l-105 146z" />
    <glyph glyph-name="udieresis" unicode="&#xfc;" horiz-adv-x="1500" 
d="M1029 1434h359v-676q0 -169 -14 -240q-45 -232 -211.5 -375.5t-411.5 -143.5t-412 143.5t-212 375.5q-15 76 -15 240v676h360v-761q0 -61 18 -130q27 -95 91.5 -153t169.5 -58q104 0 169 58.5t92 152.5q17 60 17 130v761zM377 1833h299v-288h-299v288zM826 1833h299v-288
h-299v288z" />
    <glyph glyph-name="yacute" unicode="&#xfd;" horiz-adv-x="1372" 
d="M507 0v533l-520 901h411l288 -538l286 538h413l-520 -901v-533h-358zM536 1536l125 322h384l-254 -322h-255z" />
    <glyph glyph-name="thorn" unicode="&#xfe;" horiz-adv-x="1374" 
d="M1141 1096q92 -58 144.5 -154.5t52.5 -219.5q0 -119 -53 -216t-146 -156q-109 -69 -283 -69h-366v-281h-360v1434h359v-269h367q177 0 285 -69zM909 619q75 31 75 103t-75 103q-25 11 -82 11h-338v-228h338q56 0 82 11z" />
    <glyph glyph-name="ydieresis" unicode="&#xff;" horiz-adv-x="1372" 
d="M507 0v533l-520 901h411l288 -538l286 538h413l-520 -901v-533h-358zM312 1833h299v-288h-299v288zM761 1833h299v-288h-299v288z" />
    <glyph glyph-name="Ccaron" unicode="&#x10c;" horiz-adv-x="1534" 
d="M1154 622l341 -105q-65 -228 -258 -372.5t-444 -144.5q-154 0 -290 55t-233 149.5t-153.5 228t-56.5 284.5t56 284t153 228t233.5 150t291.5 55q247 0 437 -134.5t262 -373.5l-339 -109q-43 136 -135.5 212.5t-226.5 76.5q-165 0 -266.5 -111t-101.5 -278
q0 -168 102 -278t266 -110q136 0 227.5 77.5t134.5 215.5zM399 1856h291l104 -146l105 146h292l-247 -319h-300z" />
    <glyph glyph-name="ccaron" unicode="&#x10d;" horiz-adv-x="1534" 
d="M1154 622l341 -105q-65 -228 -258 -372.5t-444 -144.5q-154 0 -290 55t-233 149.5t-153.5 228t-56.5 284.5t56 284t153 228t233.5 150t291.5 55q247 0 437 -134.5t262 -373.5l-339 -109q-43 136 -135.5 212.5t-226.5 76.5q-165 0 -266.5 -111t-101.5 -278
q0 -168 102 -278t266 -110q136 0 227.5 77.5t134.5 215.5zM399 1856h291l104 -146l105 146h292l-247 -319h-300z" />
    <glyph glyph-name="Dcaron" unicode="&#x10e;" horiz-adv-x="1476" 
d="M651 330q117 0 194 37q99 46 156 141t57 212q0 116 -56.5 210t-155.5 140q-77 36 -195 36h-163v-776h163zM650 1434q141 0 256 -35q225 -70 367.5 -255.5t142.5 -427.5t-142 -427.5t-367 -254.5q-113 -34 -257 -34h-520v1434h520zM345 1856h291l104 -146l105 146h292
l-247 -319h-300z" />
    <glyph glyph-name="dcaron" unicode="&#x10f;" horiz-adv-x="1476" 
d="M651 330q117 0 194 37q99 46 156 141t57 212q0 116 -56.5 210t-155.5 140q-77 36 -195 36h-163v-776h163zM650 1434q141 0 256 -35q225 -70 367.5 -255.5t142.5 -427.5t-142 -427.5t-367 -254.5q-113 -34 -257 -34h-520v1434h520zM345 1856h291l104 -146l105 146h292
l-247 -319h-300z" />
    <glyph glyph-name="Ecaron" unicode="&#x11a;" horiz-adv-x="1259" 
d="M130 1434h1038v-326h-680v-166h514v-321h-514v-291h680v-330h-1038v1434zM250 1856h291l104 -146l105 146h292l-247 -319h-300z" />
    <glyph glyph-name="ecaron" unicode="&#x11b;" horiz-adv-x="1259" 
d="M130 1434h1038v-326h-680v-166h514v-321h-514v-291h680v-330h-1038v1434zM250 1856h291l104 -146l105 146h292l-247 -319h-300z" />
    <glyph glyph-name="Gbreve" unicode="&#x11e;" 
d="M1248 1287l-199 -275q-128 95 -254 95q-166 0 -269.5 -112t-103.5 -279q0 -160 103.5 -274t269.5 -114q129 0 229.5 74.5t139.5 210.5h-419v330h746q35 -117 35 -231q0 -199 -94.5 -362t-262 -256.5t-374.5 -93.5q-200 0 -367.5 90t-267.5 255t-100 371q0 200 95 364.5
t264 259t376 94.5q237 0 453 -147zM391 1873h206q26 -73 73 -100.5t125 -27.5q77 0 125 28t71 100h208q-1 -155 -111.5 -255.5t-292.5 -100.5t-292.5 100t-111.5 256z" />
    <glyph glyph-name="gbreve" unicode="&#x11f;" 
d="M1248 1287l-199 -275q-128 95 -254 95q-166 0 -269.5 -112t-103.5 -279q0 -160 103.5 -274t269.5 -114q129 0 229.5 74.5t139.5 210.5h-419v330h746q35 -117 35 -231q0 -199 -94.5 -362t-262 -256.5t-374.5 -93.5q-200 0 -367.5 90t-267.5 255t-100 371q0 200 95 364.5
t264 259t376 94.5q237 0 453 -147zM391 1873h206q26 -73 73 -100.5t125 -27.5q77 0 125 28t71 100h208q-1 -155 -111.5 -255.5t-292.5 -100.5t-292.5 100t-111.5 256z" />
    <glyph glyph-name="dotlessi" unicode="&#x131;" horiz-adv-x="620" 
d="M130 0v1434h360v-1434h-360z" />
    <glyph glyph-name="Ncaron" unicode="&#x147;" horiz-adv-x="1581" 
d="M1451 0h-203l-760 809v-809h-358v1434h202l761 -809v809h358v-1434zM346 1856h291l104 -146l105 146h292l-247 -319h-300z" />
    <glyph glyph-name="ncaron" unicode="&#x148;" horiz-adv-x="1581" 
d="M1451 0h-203l-760 809v-809h-358v1434h202l761 -809v809h358v-1434zM346 1856h291l104 -146l105 146h292l-247 -319h-300z" />
    <glyph glyph-name="OE" unicode="&#x152;" horiz-adv-x="1906" 
d="M1815 1108h-663v-165h497v-322h-497v-291h663v-330h-1013q-219 0 -390 98t-261.5 260.5t-90.5 358.5q0 145 53 275t148 228.5t237.5 156t312.5 57.5h1004v-326zM424 717q0 -167 100.5 -278t268.5 -111v779q-167 0 -268 -111.5t-101 -278.5z" />
    <glyph glyph-name="oe" unicode="&#x153;" horiz-adv-x="1906" 
d="M1815 1108h-663v-165h497v-322h-497v-291h663v-330h-1013q-219 0 -390 98t-261.5 260.5t-90.5 358.5q0 145 53 275t148 228.5t237.5 156t312.5 57.5h1004v-326zM424 717q0 -167 100.5 -278t268.5 -111v779q-167 0 -268 -111.5t-101 -278.5z" />
    <glyph glyph-name="Scedilla" unicode="&#x15e;" horiz-adv-x="1274" 
d="M351 -378l37 138q41 -12 87.5 -20t95.5 -11t81 9.5t32 41.5q0 36 -47.5 50t-107.5 9l-40 63l50 108q-268 44 -496 242l213 259q207 -181 409 -181q50 0 96 9.5t82 36t36 66.5q0 20 -9 36.5t-30 29t-41 21.5t-58 18.5t-63.5 14.5t-74.5 14.5t-76 14.5q-79 16 -140 34.5
t-126 51t-107.5 73.5t-70 104t-27.5 141q0 191 140.5 315t386.5 124q296 0 548 -190l-202 -257q-73 58 -167 91t-183 33q-69 0 -121.5 -20t-52.5 -64q0 -17 8 -30.5t28.5 -25t39.5 -19t59 -16t67.5 -13.5t82.5 -14q60 -10 108 -20t106.5 -29t102.5 -41.5t88 -58t72.5 -78.5
t46 -103t17.5 -131q0 -126 -73 -228.5t-199 -160t-279 -59.5l-26 -52q132 -1 199.5 -51.5t67.5 -127.5q0 -80 -66 -133t-193 -63t-311 49z" />
    <glyph glyph-name="scedilla" unicode="&#x15f;" horiz-adv-x="1274" 
d="M353 -378l37 138q41 -12 87.5 -20t95.5 -11t81 9.5t32 41.5q0 36 -47.5 50t-107.5 9l-40 63l50 108q-270 44 -498 242l213 259q207 -181 409 -181q50 0 96 9.5t82 36t36 66.5q0 20 -9 36.5t-30 29t-41 21.5t-58 18.5t-63.5 14.5t-74.5 14.5t-76 14.5q-79 16 -140 34.5
t-126 51t-107.5 73.5t-70 104t-27.5 141q0 191 140.5 315t386.5 124q296 0 548 -190l-202 -257q-73 58 -167 91t-183 33q-69 0 -121.5 -20t-52.5 -64q0 -17 8 -30.5t28.5 -25t39.5 -19t59 -16t67.5 -13.5t82.5 -14q60 -10 108 -20t106.5 -29t102.5 -41.5t88 -58t72.5 -78.5
t46 -103t17.5 -131q0 -126 -73 -228t-198 -160t-278 -60l-26 -52q132 -1 199.5 -51.5t67.5 -127.5q0 -80 -66 -133t-193 -63t-311 49z" />
    <glyph glyph-name="Scaron" unicode="&#x160;" horiz-adv-x="1274" 
d="M43 252l213 259q207 -181 409 -181q50 0 96 9.5t82 36t36 66.5q0 20 -9 36.5t-30 29t-41 21.5t-58 18.5t-63.5 14.5t-74.5 14.5t-76 14.5q-79 16 -140 34.5t-126 51t-107.5 73.5t-70 104t-27.5 141q0 191 140.5 315t386.5 124q296 0 548 -190l-202 -257q-73 58 -167 91
t-183 33q-69 0 -121.5 -20t-52.5 -64q0 -17 8 -30.5t28.5 -25t39.5 -19t59 -16t67.5 -13.5t82.5 -14q60 -10 108 -20t106.5 -29t102.5 -41.5t88 -58t72.5 -78.5t46 -103t17.5 -131q0 -128 -74.5 -231t-202.5 -160t-284 -57q-152 0 -314 61t-313 191zM190 1856h291l104 -146
l105 146h292l-247 -319h-300z" />
    <glyph glyph-name="scaron" unicode="&#x161;" horiz-adv-x="1274" 
d="M43 252l213 259q207 -181 409 -181q50 0 96 9.5t82 36t36 66.5q0 20 -9 36.5t-30 29t-41 21.5t-58 18.5t-63.5 14.5t-74.5 14.5t-76 14.5q-79 16 -140 34.5t-126 51t-107.5 73.5t-70 104t-27.5 141q0 191 140.5 315t386.5 124q296 0 548 -190l-202 -257q-73 58 -167 91
t-183 33q-69 0 -121.5 -20t-52.5 -64q0 -17 8 -30.5t28.5 -25t39.5 -19t59 -16t67.5 -13.5t82.5 -14q60 -10 108 -20t106.5 -29t102.5 -41.5t88 -58t72.5 -78.5t46 -103t17.5 -131q0 -128 -74.5 -231t-202.5 -160t-284 -57q-152 0 -314 61t-313 191zM190 1856h291l104 -146
l105 146h292l-247 -319h-300z" />
    <glyph glyph-name="Tcaron" unicode="&#x164;" horiz-adv-x="1388" 
d="M60 1434h1268v-330h-455v-1104h-360v1104h-453v330zM299 1856h291l104 -146l105 146h292l-247 -319h-300z" />
    <glyph glyph-name="tcaron" unicode="&#x165;" horiz-adv-x="1388" 
d="M60 1434h1268v-330h-455v-1104h-360v1104h-453v330zM299 1856h291l104 -146l105 146h292l-247 -319h-300z" />
    <glyph glyph-name="Uring" unicode="&#x16e;" horiz-adv-x="1500" 
d="M1029 1434h359v-676q0 -169 -14 -240q-45 -232 -211.5 -375.5t-411.5 -143.5t-412 143.5t-212 375.5q-15 76 -15 240v676h360v-761q0 -61 18 -130q27 -95 91.5 -153t169.5 -58q104 0 169 58.5t92 152.5q17 60 17 130v761zM750 1918q109 0 186 -73.5t77 -182.5
q0 -110 -77 -183.5t-186 -73.5q-110 0 -187.5 73.5t-77.5 183.5q0 109 77.5 182.5t187.5 73.5zM752 1739q-33 0 -54 -21t-21 -56t21 -56t54 -21t52.5 21t19.5 56t-19.5 56t-52.5 21z" />
    <glyph glyph-name="uring" unicode="&#x16f;" horiz-adv-x="1500" 
d="M1029 1434h359v-676q0 -169 -14 -240q-45 -232 -211.5 -375.5t-411.5 -143.5t-412 143.5t-212 375.5q-15 76 -15 240v676h360v-761q0 -61 18 -130q27 -95 91.5 -153t169.5 -58q104 0 169 58.5t92 152.5q17 60 17 130v761zM750 1918q109 0 186 -73.5t77 -182.5
q0 -110 -77 -183.5t-186 -73.5q-110 0 -187.5 73.5t-77.5 183.5q0 109 77.5 182.5t187.5 73.5zM752 1739q-33 0 -54 -21t-21 -56t21 -56t54 -21t52.5 21t19.5 56t-19.5 56t-52.5 21z" />
    <glyph glyph-name="Ydieresis" unicode="&#x178;" horiz-adv-x="1372" 
d="M507 0v533l-520 901h411l288 -538l286 538h413l-520 -901v-533h-358zM312 1833h299v-288h-299v288zM761 1833h299v-288h-299v288z" />
    <glyph glyph-name="Zacute" unicode="&#x179;" horiz-adv-x="1341" 
d="M108 1104v330h1127v-186l-640 -918h658v-330h-1165v188l639 916h-619zM520 1536l125 322h384l-254 -322h-255z" />
    <glyph glyph-name="zacute" unicode="&#x17a;" horiz-adv-x="1341" 
d="M108 1104v330h1127v-186l-640 -918h658v-330h-1165v188l639 916h-619zM520 1536l125 322h384l-254 -322h-255z" />
    <glyph glyph-name="Zcaron" unicode="&#x17d;" horiz-adv-x="1341" 
d="M108 1104v330h1127v-186l-640 -918h658v-330h-1165v188l639 916h-619zM275 1856h291l104 -146l105 146h292l-247 -319h-300z" />
    <glyph glyph-name="zcaron" unicode="&#x17e;" horiz-adv-x="1341" 
d="M108 1104v330h1127v-186l-640 -918h658v-330h-1165v188l639 916h-619zM275 1856h291l104 -146l105 146h292l-247 -319h-300z" />
    <glyph glyph-name="circumflex" unicode="&#x2c6;" horiz-adv-x="1119" 
d="M451 1537h-291l245 319h300l247 -319h-292l-105 146z" />
    <glyph glyph-name="caron" unicode="&#x2c7;" horiz-adv-x="1119" 
d="M160 1856h291l104 -146l105 146h292l-247 -319h-300z" />
    <glyph glyph-name="breve" unicode="&#x2d8;" horiz-adv-x="1119" 
d="M151 1873h206q26 -73 73 -100.5t125 -27.5q77 0 125 28t71 100h208q-1 -155 -111.5 -255.5t-292.5 -100.5t-292.5 100t-111.5 256z" />
    <glyph glyph-name="dotaccent" unicode="&#x2d9;" horiz-adv-x="1215" 
d="M477 1840h312v-300h-312v300z" />
    <glyph glyph-name="ring" unicode="&#x2da;" horiz-adv-x="1015" 
d="M502 1812q-31 0 -50 -19.5t-19 -51.5t19 -51.5t50 -19.5q30 0 48 19.5t18 51.5t-18 51.5t-48 19.5zM500 1977q100 0 171 -67.5t71 -168.5t-71 -169t-171 -68q-101 0 -172.5 68t-71.5 169t71.5 168.5t172.5 67.5z" />
    <glyph glyph-name="tilde" unicode="&#x2dc;" horiz-adv-x="1051" 
d="M89 1535q9 153 71.5 237.5t168.5 84.5q65 0 133.5 -19.5t121.5 -38.5t82 -19q72 0 90 76h206q-9 -153 -71.5 -238t-168.5 -85q-66 0 -134.5 19.5t-121.5 38.5t-82 19q-71 0 -90 -75h-205z" />
    <glyph glyph-name="uni0400" unicode="&#x400;" horiz-adv-x="1259" 
d="M130 1434h1038v-326h-680v-166h514v-321h-514v-291h680v-330h-1038v1434zM674 1858l125 -322h-255l-249 322h379z" />
    <glyph glyph-name="uni0401" unicode="&#x401;" horiz-adv-x="1259" 
d="M130 1434h1038v-326h-680v-166h514v-321h-514v-291h680v-330h-1038v1434zM274 1837h297v-286h-297v286zM727 1837h297v-286h-297v286z" />
    <glyph glyph-name="uni0402" unicode="&#x402;" horiz-adv-x="1735" 
d="M1312 1104h-455v-198q118 48 275 48q262 0 403 -131q150 -129 150 -359q0 -151 -78.5 -273t-229.5 -167q-81 -24 -200 -24h-154v330h138q166 0 166 122q0 87 -65 131t-169 44q-135 0 -236 -49v-578h-358v1104h-439v330h1252v-330z" />
    <glyph glyph-name="uni0403" unicode="&#x403;" horiz-adv-x="1225" 
d="M490 0h-360v1434h1038v-331h-678v-1103zM495 1536l125 322h379l-249 -322h-255z" />
    <glyph glyph-name="uni0404" unicode="&#x404;" horiz-adv-x="1534" 
d="M1153 621l341 -105q-65 -228 -258 -372t-444 -144q-154 0 -289.5 55t-232.5 149.5t-153.5 228t-56.5 285.5q0 201 95 365t263 257.5t375 93.5q247 0 437 -134t262 -374l-339 -109q-43 137 -135.5 213.5t-226.5 76.5q-120 0 -209.5 -57.5t-133.5 -156.5h536v-321h-547
q38 -112 131.5 -178t222.5 -66q136 0 227.5 78t134.5 215z" />
    <glyph glyph-name="uni0405" unicode="&#x405;" horiz-adv-x="1274" 
d="M43 252l213 259q207 -181 409 -181q50 0 96 9.5t82 36t36 66.5q0 20 -9 36.5t-30 29t-41 21.5t-58 18.5t-63.5 14.5t-74.5 14.5t-76 14.5q-79 16 -140 34.5t-126 51t-107.5 73.5t-70 104t-27.5 141q0 191 140.5 315t386.5 124q296 0 548 -190l-202 -257q-73 58 -167 91
t-183 33q-69 0 -121.5 -20t-52.5 -64q0 -17 8 -30.5t28.5 -25t39.5 -19t59 -16t67.5 -13.5t82.5 -14q60 -10 108 -20t106.5 -29t102.5 -41.5t88 -58t72.5 -78.5t46 -103t17.5 -131q0 -128 -74.5 -231t-202.5 -160t-284 -57q-152 0 -314 61t-313 191z" />
    <glyph glyph-name="uni0406" unicode="&#x406;" horiz-adv-x="620" 
d="M130 0v1434h360v-1434h-360z" />
    <glyph glyph-name="uni0407" unicode="&#x407;" horiz-adv-x="620" 
d="M130 0v1434h360v-1434h-360zM-65 1837h297v-286h-297v286zM388 1837h297v-286h-297v286z" />
    <glyph glyph-name="uni0408" unicode="&#x408;" horiz-adv-x="854" 
d="M-19 71l164 316q56 -31 101 -31q44 0 73.5 26t40.5 63q8 28 8 101v887h359v-829q0 -160 -18 -235q-39 -161 -169 -265t-304 -104q-130 0 -255 71z" />
    <glyph glyph-name="uni0409" unicode="&#x409;" horiz-adv-x="2322" 
d="M378 1434h1078v-512h329q170 0 282 -67q101 -60 160 -162.5t59 -229.5q0 -131 -58.5 -233.5t-159.5 -161.5q-109 -68 -283 -68h-687v1105h-362v-441q0 -152 -22.5 -264.5t-79.5 -195.5q-62 -93 -167.5 -149t-230.5 -56q-130 0 -255 71l164 316q55 -31 101 -31
q103 0 125 158q7 50 7 165v756zM1758 594h-302v-264h302q60 0 89 13q85 36 85 120q0 42 -23.5 72.5t-61.5 46.5q-28 12 -89 12z" />
    <glyph glyph-name="uni040A" unicode="&#x40a;" horiz-adv-x="2250" 
d="M130 1434h360v-508h534v508h360v-512h329q170 0 282 -67q101 -60 160 -162.5t59 -229.5q0 -131 -58.5 -233.5t-159.5 -161.5q-109 -68 -283 -68h-689v596h-534v-596h-360v1434zM1686 594h-302v-264h302q60 0 89 13q85 36 85 120q0 42 -23.5 72.5t-61.5 46.5
q-28 12 -89 12z" />
    <glyph glyph-name="uni040B" unicode="&#x40b;" horiz-adv-x="1763" 
d="M1313 1104h-455v-175q116 31 242 31q334 0 486 -222q62 -90 78 -204q9 -61 9 -184v-350h-359v364q0 112 -18 157q-43 110 -232 110q-114 0 -206 -36v-595h-358v1104h-440v330h1253v-330z" />
    <glyph glyph-name="uni040C" unicode="&#x40c;" horiz-adv-x="1383" 
d="M854 1434h434l-489 -629l594 -805h-440l-465 660v-660h-358v1434h358v-510zM514 1536l125 322h379l-249 -322h-255z" />
    <glyph glyph-name="uni040D" unicode="&#x40d;" horiz-adv-x="1565" 
d="M333 0h-203v1434h358v-817l745 817h202v-1434h-358v814zM848 1803l125 -322h-255l-249 322h379z" />
    <glyph glyph-name="uni040E" unicode="&#x40e;" horiz-adv-x="1406" 
d="M1416 1434l-529 -987q-28 -52 -43 -80t-42 -73.5t-46 -71t-48.5 -61.5t-54.5 -56t-60 -43.5t-70.5 -35.5t-79.5 -20t-92 -8q-147 0 -281 87l182 305q59 -37 107 -37q25 0 47.5 11.5t45 36.5t36.5 44.5t38 56.5l-516 932h403l307 -586l295 586h401zM338 1828h208
q32 -129 174 -129q143 0 175 129h210q1 -170 -105.5 -264t-279.5 -94q-172 0 -277.5 94t-104.5 264z" />
    <glyph glyph-name="uni040F" unicode="&#x40f;" horiz-adv-x="1534" 
d="M1404 0h-456v-295h-361v295h-457v1434h359v-1102h557v1102h358v-1434z" />
    <glyph glyph-name="uni0410" unicode="&#x410;" horiz-adv-x="1454" 
d="M1084 0l-77 216h-560l-76 -216h-381l565 1434h346l563 -1434h-380zM728 996l-163 -459h325z" />
    <glyph glyph-name="uni0411" unicode="&#x411;" horiz-adv-x="1404" 
d="M130 0v1434h1066v-331h-706v-200h357q172 0 282 -68q97 -60 153 -159t56 -223q0 -127 -55.5 -226.5t-151.5 -157.5q-108 -69 -284 -69h-717zM904 564q-30 12 -85 12h-330v-246h330q59 0 85 11q80 35 80 112q0 39 -22.5 68t-57.5 43z" />
    <glyph glyph-name="uni0412" unicode="&#x412;" horiz-adv-x="1385" 
d="M485 1117v-236h221q60 0 85 10q34 14 56 41.5t22 65.5q0 37 -21.5 65t-56.5 42q-29 12 -85 12h-221zM894 335q37 15 60.5 45t23.5 71q0 40 -23 70.5t-61 45.5q-30 12 -92 12h-317v-256h318q59 0 91 12zM1128 777q203 -123 203 -348q0 -115 -54 -209.5t-147 -152.5
q-55 -34 -125.5 -50.5t-181.5 -16.5h-693v1434h563q110 0 179 -13.5t122 -42.5q103 -56 160 -157.5t57 -215.5q0 -128 -83 -228z" />
    <glyph glyph-name="uni0413" unicode="&#x413;" horiz-adv-x="1225" 
d="M490 0h-360v1434h1038v-331h-678v-1103z" />
    <glyph glyph-name="uni0414" unicode="&#x414;" horiz-adv-x="1689" 
d="M1081 1105h-341q0 -213 -28 -382q-34 -197 -112 -394h481v776zM1439 1434v-1105h191v-624h-359v295h-862v-295h-358v624h174q97 191 134 462q8 60 13.5 121.5t9 139t5 118.5t3 140.5t2.5 123.5h1047z" />
    <glyph glyph-name="uni0415" unicode="&#x415;" horiz-adv-x="1259" 
d="M130 1434h1038v-326h-680v-166h514v-321h-514v-291h680v-330h-1038v1434z" />
    <glyph glyph-name="uni0416" unicode="&#x416;" horiz-adv-x="2049" 
d="M2064 0h-429l-431 662v-662h-357v662l-433 -662h-429l555 806l-459 628h421l345 -513v513h357v-513l343 513h422l-459 -628z" />
    <glyph glyph-name="uni0417" unicode="&#x417;" horiz-adv-x="1275" 
d="M18 259l207 252q209 -179 398 -183q96 -2 167 37t71 94q0 45 -27.5 74t-77 41.5t-92 16.5t-99.5 4h-231v316h230q35 0 57.5 1t52 3.5t48 9t36 16.5t25.5 26.5t8 38.5q0 45 -59 76t-148 31q-155 0 -313 -118l-190 258q267 182 524 182q149 0 274 -58.5t196 -157t71 -213.5
q0 -138 -126 -224q199 -126 199 -323q0 -117 -75.5 -222.5t-208.5 -171t-289 -65.5q-148 -1 -309.5 62t-318.5 197z" />
    <glyph glyph-name="uni0418" unicode="&#x418;" horiz-adv-x="1565" 
d="M333 0h-203v1434h358v-817l745 817h202v-1434h-358v814z" />
    <glyph glyph-name="uni0419" unicode="&#x419;" horiz-adv-x="1565" 
d="M1151 1683l-323 -356l-235 213l322 356zM333 0h-203v1434h358v-817l745 817h202v-1434h-358v814z" />
    <glyph glyph-name="uni041A" unicode="&#x41a;" horiz-adv-x="1383" 
d="M854 1434h434l-489 -629l594 -805h-440l-465 660v-660h-358v1434h358v-510z" />
    <glyph glyph-name="uni041B" unicode="&#x41b;" horiz-adv-x="1593" 
d="M378 1434h1085v-1434h-358v1105h-369v-441q0 -152 -22.5 -264.5t-79.5 -195.5q-62 -93 -167.5 -149t-230.5 -56q-130 0 -255 71l164 316q55 -31 101 -31q103 0 125 158q7 50 7 165v756z" />
    <glyph glyph-name="uni041C" unicode="&#x41c;" horiz-adv-x="1839" 
d="M130 1434h205l585 -667l587 667h202v-1434h-356v778l-433 -495l-433 495v-778h-357v1434z" />
    <glyph glyph-name="uni041D" unicode="&#x41d;" horiz-adv-x="1531" 
d="M130 1434h360v-483h551v483h360v-1434h-360v621h-551v-621h-360v1434z" />
    <glyph glyph-name="uni041E" unicode="&#x41e;" 
d="M793 0q-156 0 -293 55.5t-233 151t-151.5 228t-55.5 282.5t55.5 282.5t151.5 228t233 151t293 55.5t293 -55.5t233 -151t151.5 -228t55.5 -282.5t-55.5 -282.5t-151.5 -228t-233 -151t-293 -55.5zM793 1106q-167 0 -268 -111t-101 -278t101 -277.5t268 -110.5t268 110.5
t101 277.5t-101 278t-268 111z" />
    <glyph glyph-name="uni041F" unicode="&#x41f;" horiz-adv-x="1534" 
d="M130 1434h1274v-1434h-358v1105h-557v-1105h-359v1434z" />
    <glyph glyph-name="uni0420" unicode="&#x420;" horiz-adv-x="1374" 
d="M1141 1365q92 -58 144.5 -154.5t52.5 -219.5q0 -119 -53 -216t-146 -156q-109 -69 -283 -69h-366v-550h-360v1434h726q177 0 285 -69zM909 888q75 31 75 103t-75 103q-25 11 -82 11h-338v-228h338q56 0 82 11z" />
    <glyph glyph-name="uni0421" unicode="&#x421;" horiz-adv-x="1534" 
d="M1154 622l341 -105q-65 -228 -258 -372.5t-444 -144.5q-154 0 -290 55t-233 149.5t-153.5 228t-56.5 284.5t56 284t153 228t233.5 150t291.5 55q247 0 437 -134.5t262 -373.5l-339 -109q-43 136 -135.5 212.5t-226.5 76.5q-165 0 -266.5 -111t-101.5 -278
q0 -168 102 -278t266 -110q136 0 227.5 77.5t134.5 215.5z" />
    <glyph glyph-name="uni0422" unicode="&#x422;" horiz-adv-x="1388" 
d="M60 1434h1268v-330h-455v-1104h-360v1104h-453v330z" />
    <glyph glyph-name="uni0423" unicode="&#x423;" horiz-adv-x="1406" 
d="M1416 1434l-529 -987q-28 -52 -43 -80t-42 -73.5t-46 -71t-48.5 -61.5t-54.5 -56t-60 -43.5t-70.5 -35.5t-79.5 -20t-92 -8q-147 0 -281 87l182 305q59 -37 107 -37q25 0 47.5 11.5t45 36.5t36.5 44.5t38 56.5l-516 932h403l307 -586l295 586h401z" />
    <glyph glyph-name="uni0424" unicode="&#x424;" horiz-adv-x="1765" 
d="M1061 964v-493q88 10 154.5 38t108.5 81.5t42 127.5q0 108 -84.5 169.5t-220.5 76.5zM705 471v493q-136 -15 -221 -76.5t-85 -169.5t85 -170t221 -77zM703 1293v141h358v-141q187 -14 337 -87t239 -200.5t89 -287.5q0 -161 -89 -288.5t-239 -200.5t-337 -86v-143h-358
v143q-186 13 -335.5 86t-239 200.5t-89.5 288.5q0 160 89.5 288t239 200.5t335.5 86.5z" />
    <glyph glyph-name="uni0425" unicode="&#x425;" horiz-adv-x="1521" 
d="M7 0l544 756l-490 678h436l263 -397l263 397h437l-491 -678l545 -756h-443l-311 473l-310 -473h-443z" />
    <glyph glyph-name="uni0426" unicode="&#x426;" horiz-adv-x="1647" 
d="M130 0v1434h359v-1105h545v1105h358v-1104h199v-625h-359v295h-1102z" />
    <glyph glyph-name="uni0427" unicode="&#x427;" horiz-adv-x="1416" 
d="M928 1434h358v-1434h-358v507q-127 -37 -266 -37q-333 0 -482 217q-56 81 -73 166t-17 209v372h358v-421q0 -114 63 -164t188 -50q131 0 229 46v589z" />
    <glyph glyph-name="uni0428" unicode="&#x428;" horiz-adv-x="2054" 
d="M1566 1434h358v-1434h-1794v1434h359v-1104h360v1104h356v-1104h361v1104z" />
    <glyph glyph-name="uni0429" unicode="&#x429;" horiz-adv-x="2181" 
d="M1567 1434h359v-1104h199v-625h-359v295h-1636v1434h358v-1104h361v1104h356v-1104h362v1104z" />
    <glyph glyph-name="uni042A" unicode="&#x42a;" horiz-adv-x="1576" 
d="M12 1103v331h680v-530h357q172 0 282 -68q97 -60 153 -159.5t56 -223.5q0 -127 -55.5 -226.5t-151.5 -157.5q-108 -69 -284 -69h-717v1103h-320zM1106 564q-30 12 -85 12h-330v-246h330q59 0 85 11q80 35 80 112q0 39 -22.5 68t-57.5 43z" />
    <glyph glyph-name="uni042B" unicode="&#x42b;" horiz-adv-x="1988" 
d="M1858 1434v-1434h-359v1434h359zM904 564q-30 12 -85 12h-330v-246h330q59 0 85 11q80 35 80 112q0 39 -22.5 68t-57.5 43zM490 1434v-530h357q172 0 282 -68q97 -60 153 -159.5t56 -223.5q0 -127 -55.5 -226.5t-151.5 -157.5q-108 -69 -284 -69h-717v1434h360z" />
    <glyph glyph-name="uni042C" unicode="&#x42c;" horiz-adv-x="1374" 
d="M904 564q-30 12 -85 12h-330v-246h330q59 0 85 11q80 35 80 112q0 39 -22.5 68t-57.5 43zM490 1434v-530h357q172 0 282 -68q97 -60 153 -159.5t56 -223.5q0 -127 -55.5 -226.5t-151.5 -157.5q-108 -69 -284 -69h-717v1434h360z" />
    <glyph glyph-name="uni042D" unicode="&#x42d;" horiz-adv-x="1536" 
d="M552 572v321h535q-43 98 -132.5 156t-209.5 58q-134 0 -226.5 -76.5t-135.5 -213.5l-339 109q72 240 262 374t437 134q207 0 375 -93.5t263 -257.5t95 -365q0 -152 -56.5 -285.5t-153.5 -228t-232.5 -149.5t-289.5 -55q-251 0 -444 144t-258 372l341 105
q43 -137 134.5 -215t227.5 -78q129 0 222 66t132 178h-547z" />
    <glyph glyph-name="uni042E" unicode="&#x42e;" horiz-adv-x="2165" 
d="M1372 0q-273 0 -469 157t-248 406h-165v-563h-360v1434h360v-541h170q57 240 251.5 390.5t460.5 150.5q156 0 293 -55.5t233 -151t151.5 -228t55.5 -282.5t-55.5 -282.5t-151.5 -228t-233 -151t-293 -55.5zM1372 1106q-167 0 -268 -111t-101 -278t101 -277.5t268 -110.5
t268 110.5t101 277.5t-101 278t-268 111z" />
    <glyph glyph-name="uni042F" unicode="&#x42f;" horiz-adv-x="1441" 
d="M1311 0h-359v550h-215l-315 -550h-416l357 595q-107 44 -166 118q-94 119 -94 278q0 123 52.5 219.5t144.5 154.5q108 69 285 69h726v-1434zM614 877h338v228h-338q-57 0 -82 -11q-75 -31 -75 -103t75 -103q26 -11 82 -11z" />
    <glyph glyph-name="uni0430" unicode="&#x430;" horiz-adv-x="1454" 
d="M1084 0l-77 216h-560l-76 -216h-381l565 1434h346l563 -1434h-380zM728 996l-163 -459h325z" />
    <glyph glyph-name="uni0431" unicode="&#x431;" horiz-adv-x="1404" 
d="M130 0v1434h1066v-331h-706v-200h357q172 0 282 -68q97 -60 153 -159t56 -223q0 -127 -55.5 -226.5t-151.5 -157.5q-108 -69 -284 -69h-717zM904 564q-30 12 -85 12h-330v-246h330q59 0 85 11q80 35 80 112q0 39 -22.5 68t-57.5 43z" />
    <glyph glyph-name="uni0432" unicode="&#x432;" horiz-adv-x="1385" 
d="M485 1117v-236h221q60 0 85 10q34 14 56 41.5t22 65.5q0 37 -21.5 65t-56.5 42q-29 12 -85 12h-221zM894 335q37 15 60.5 45t23.5 71q0 40 -23 70.5t-61 45.5q-30 12 -92 12h-317v-256h318q59 0 91 12zM1128 777q203 -123 203 -348q0 -115 -54 -209.5t-147 -152.5
q-55 -34 -125.5 -50.5t-181.5 -16.5h-693v1434h563q110 0 179 -13.5t122 -42.5q103 -56 160 -157.5t57 -215.5q0 -128 -83 -228z" />
    <glyph glyph-name="uni0433" unicode="&#x433;" horiz-adv-x="1225" 
d="M490 0h-360v1434h1038v-331h-678v-1103z" />
    <glyph glyph-name="uni0434" unicode="&#x434;" horiz-adv-x="1689" 
d="M1081 1105h-341q0 -213 -28 -382q-34 -197 -112 -394h481v776zM1439 1434v-1105h191v-624h-359v295h-862v-295h-358v624h174q97 191 134 462q8 60 13.5 121.5t9 139t5 118.5t3 140.5t2.5 123.5h1047z" />
    <glyph glyph-name="uni0435" unicode="&#x435;" horiz-adv-x="1259" 
d="M130 1434h1038v-326h-680v-166h514v-321h-514v-291h680v-330h-1038v1434z" />
    <glyph glyph-name="uni0436" unicode="&#x436;" horiz-adv-x="2049" 
d="M2064 0h-429l-431 662v-662h-357v662l-433 -662h-429l555 806l-459 628h421l345 -513v513h357v-513l343 513h422l-459 -628z" />
    <glyph glyph-name="uni0437" unicode="&#x437;" horiz-adv-x="1275" 
d="M18 259l207 252q209 -179 398 -183q96 -2 167 37t71 94q0 45 -27.5 74t-77 41.5t-92 16.5t-99.5 4h-231v316h230q35 0 57.5 1t52 3.5t48 9t36 16.5t25.5 26.5t8 38.5q0 45 -59 76t-148 31q-155 0 -313 -118l-190 258q267 182 524 182q149 0 274 -58.5t196 -157t71 -213.5
q0 -138 -126 -224q199 -126 199 -323q0 -117 -75.5 -222.5t-208.5 -171t-289 -65.5q-148 -1 -309.5 62t-318.5 197z" />
    <glyph glyph-name="uni0438" unicode="&#x438;" horiz-adv-x="1565" 
d="M333 0h-203v1434h358v-817l745 817h202v-1434h-358v814z" />
    <glyph glyph-name="uni0439" unicode="&#x439;" horiz-adv-x="1565" 
d="M1151 1683l-323 -356l-235 213l322 356zM333 0h-203v1434h358v-817l745 817h202v-1434h-358v814z" />
    <glyph glyph-name="uni043A" unicode="&#x43a;" horiz-adv-x="1383" 
d="M854 1434h434l-489 -629l594 -805h-440l-465 660v-660h-358v1434h358v-510z" />
    <glyph glyph-name="uni043B" unicode="&#x43b;" horiz-adv-x="1593" 
d="M378 1434h1085v-1434h-358v1105h-369v-441q0 -152 -22.5 -264.5t-79.5 -195.5q-62 -93 -167.5 -149t-230.5 -56q-130 0 -255 71l164 316q55 -31 101 -31q103 0 125 158q7 50 7 165v756z" />
    <glyph glyph-name="uni043C" unicode="&#x43c;" horiz-adv-x="1839" 
d="M130 1434h205l585 -667l587 667h202v-1434h-356v778l-433 -495l-433 495v-778h-357v1434z" />
    <glyph glyph-name="uni043D" unicode="&#x43d;" horiz-adv-x="1531" 
d="M130 1434h360v-483h551v483h360v-1434h-360v621h-551v-621h-360v1434z" />
    <glyph glyph-name="uni043E" unicode="&#x43e;" 
d="M793 0q-156 0 -293 55.5t-233 151t-151.5 228t-55.5 282.5t55.5 282.5t151.5 228t233 151t293 55.5t293 -55.5t233 -151t151.5 -228t55.5 -282.5t-55.5 -282.5t-151.5 -228t-233 -151t-293 -55.5zM793 1106q-167 0 -268 -111t-101 -278t101 -277.5t268 -110.5t268 110.5
t101 277.5t-101 278t-268 111z" />
    <glyph glyph-name="uni043F" unicode="&#x43f;" horiz-adv-x="1534" 
d="M130 1434h1274v-1434h-358v1105h-557v-1105h-359v1434z" />
    <glyph glyph-name="uni0440" unicode="&#x440;" horiz-adv-x="1374" 
d="M1141 1365q92 -58 144.5 -154.5t52.5 -219.5q0 -119 -53 -216t-146 -156q-109 -69 -283 -69h-366v-550h-360v1434h726q177 0 285 -69zM909 888q75 31 75 103t-75 103q-25 11 -82 11h-338v-228h338q56 0 82 11z" />
    <glyph glyph-name="uni0441" unicode="&#x441;" horiz-adv-x="1534" 
d="M1154 622l341 -105q-65 -228 -258 -372.5t-444 -144.5q-154 0 -290 55t-233 149.5t-153.5 228t-56.5 284.5t56 284t153 228t233.5 150t291.5 55q247 0 437 -134.5t262 -373.5l-339 -109q-43 136 -135.5 212.5t-226.5 76.5q-165 0 -266.5 -111t-101.5 -278
q0 -168 102 -278t266 -110q136 0 227.5 77.5t134.5 215.5z" />
    <glyph glyph-name="uni0442" unicode="&#x442;" horiz-adv-x="1388" 
d="M60 1434h1268v-330h-455v-1104h-360v1104h-453v330z" />
    <glyph glyph-name="uni0443" unicode="&#x443;" horiz-adv-x="1406" 
d="M1416 1434l-529 -987q-28 -52 -43 -80t-42 -73.5t-46 -71t-48.5 -61.5t-54.5 -56t-60 -43.5t-70.5 -35.5t-79.5 -20t-92 -8q-147 0 -281 87l182 305q59 -37 107 -37q25 0 47.5 11.5t45 36.5t36.5 44.5t38 56.5l-516 932h403l307 -586l295 586h401z" />
    <glyph glyph-name="uni0444" unicode="&#x444;" horiz-adv-x="1765" 
d="M1061 964v-493q88 10 154.5 38t108.5 81.5t42 127.5q0 108 -84.5 169.5t-220.5 76.5zM705 471v493q-136 -15 -221 -76.5t-85 -169.5t85 -170t221 -77zM703 1293v141h358v-141q187 -14 337 -87t239 -200.5t89 -287.5q0 -161 -89 -288.5t-239 -200.5t-337 -86v-143h-358
v143q-186 13 -335.5 86t-239 200.5t-89.5 288.5q0 160 89.5 288t239 200.5t335.5 86.5z" />
    <glyph glyph-name="uni0445" unicode="&#x445;" horiz-adv-x="1521" 
d="M7 0l544 756l-490 678h436l263 -397l263 397h437l-491 -678l545 -756h-443l-311 473l-310 -473h-443z" />
    <glyph glyph-name="uni0446" unicode="&#x446;" horiz-adv-x="1647" 
d="M130 0v1434h359v-1105h545v1105h358v-1104h199v-625h-359v295h-1102z" />
    <glyph glyph-name="uni0447" unicode="&#x447;" horiz-adv-x="1416" 
d="M928 1434h358v-1434h-358v507q-127 -37 -266 -37q-333 0 -482 217q-56 81 -73 166t-17 209v372h358v-421q0 -114 63 -164t188 -50q131 0 229 46v589z" />
    <glyph glyph-name="uni0448" unicode="&#x448;" horiz-adv-x="2054" 
d="M1566 1434h358v-1434h-1794v1434h359v-1104h360v1104h356v-1104h361v1104z" />
    <glyph glyph-name="uni0449" unicode="&#x449;" horiz-adv-x="2181" 
d="M1567 1434h359v-1104h199v-625h-359v295h-1636v1434h358v-1104h361v1104h356v-1104h362v1104z" />
    <glyph glyph-name="uni044A" unicode="&#x44a;" horiz-adv-x="1576" 
d="M12 1103v331h680v-530h357q172 0 282 -68q97 -60 153 -159.5t56 -223.5q0 -127 -55.5 -226.5t-151.5 -157.5q-108 -69 -284 -69h-717v1103h-320zM1106 564q-30 12 -85 12h-330v-246h330q59 0 85 11q80 35 80 112q0 39 -22.5 68t-57.5 43z" />
    <glyph glyph-name="uni044B" unicode="&#x44b;" horiz-adv-x="1988" 
d="M1858 1434v-1434h-359v1434h359zM904 564q-30 12 -85 12h-330v-246h330q59 0 85 11q80 35 80 112q0 39 -22.5 68t-57.5 43zM490 1434v-530h357q172 0 282 -68q97 -60 153 -159.5t56 -223.5q0 -127 -55.5 -226.5t-151.5 -157.5q-108 -69 -284 -69h-717v1434h360z" />
    <glyph glyph-name="uni044C" unicode="&#x44c;" horiz-adv-x="1374" 
d="M904 564q-30 12 -85 12h-330v-246h330q59 0 85 11q80 35 80 112q0 39 -22.5 68t-57.5 43zM490 1434v-530h357q172 0 282 -68q97 -60 153 -159.5t56 -223.5q0 -127 -55.5 -226.5t-151.5 -157.5q-108 -69 -284 -69h-717v1434h360z" />
    <glyph glyph-name="uni044D" unicode="&#x44d;" horiz-adv-x="1536" 
d="M552 572v321h535q-43 98 -132.5 156t-209.5 58q-134 0 -226.5 -76.5t-135.5 -213.5l-339 109q72 240 262 374t437 134q207 0 375 -93.5t263 -257.5t95 -365q0 -152 -56.5 -285.5t-153.5 -228t-232.5 -149.5t-289.5 -55q-251 0 -444 144t-258 372l341 105
q43 -137 134.5 -215t227.5 -78q129 0 222 66t132 178h-547z" />
    <glyph glyph-name="uni044E" unicode="&#x44e;" horiz-adv-x="2165" 
d="M1372 0q-273 0 -469 157t-248 406h-165v-563h-360v1434h360v-541h170q57 240 251.5 390.5t460.5 150.5q156 0 293 -55.5t233 -151t151.5 -228t55.5 -282.5t-55.5 -282.5t-151.5 -228t-233 -151t-293 -55.5zM1372 1106q-167 0 -268 -111t-101 -278t101 -277.5t268 -110.5
t268 110.5t101 277.5t-101 278t-268 111z" />
    <glyph glyph-name="uni044F" unicode="&#x44f;" horiz-adv-x="1441" 
d="M1311 0h-359v550h-215l-315 -550h-416l357 595q-107 44 -166 118q-94 119 -94 278q0 123 52.5 219.5t144.5 154.5q108 69 285 69h726v-1434zM614 877h338v228h-338q-57 0 -82 -11q-75 -31 -75 -103t75 -103q26 -11 82 -11z" />
    <glyph glyph-name="uni0450" unicode="&#x450;" horiz-adv-x="1259" 
d="M130 1434h1038v-326h-680v-166h514v-321h-514v-291h680v-330h-1038v1434zM674 1858l125 -322h-255l-249 322h379z" />
    <glyph glyph-name="uni0451" unicode="&#x451;" horiz-adv-x="1259" 
d="M130 1434h1038v-326h-680v-166h514v-321h-514v-291h680v-330h-1038v1434zM274 1837h297v-286h-297v286zM727 1837h297v-286h-297v286z" />
    <glyph glyph-name="uni0452" unicode="&#x452;" horiz-adv-x="1735" 
d="M1312 1104h-455v-198q118 48 275 48q262 0 403 -131q150 -129 150 -359q0 -151 -78.5 -273t-229.5 -167q-81 -24 -200 -24h-154v330h138q166 0 166 122q0 87 -65 131t-169 44q-135 0 -236 -49v-578h-358v1104h-439v330h1252v-330z" />
    <glyph glyph-name="uni0453" unicode="&#x453;" horiz-adv-x="1225" 
d="M490 0h-360v1434h1038v-331h-678v-1103zM495 1536l125 322h379l-249 -322h-255z" />
    <glyph glyph-name="uni0454" unicode="&#x454;" horiz-adv-x="1534" 
d="M1153 621l341 -105q-65 -228 -258 -372t-444 -144q-154 0 -289.5 55t-232.5 149.5t-153.5 228t-56.5 285.5q0 201 95 365t263 257.5t375 93.5q247 0 437 -134t262 -374l-339 -109q-43 137 -135.5 213.5t-226.5 76.5q-120 0 -209.5 -57.5t-133.5 -156.5h536v-321h-547
q38 -112 131.5 -178t222.5 -66q136 0 227.5 78t134.5 215z" />
    <glyph glyph-name="uni0455" unicode="&#x455;" horiz-adv-x="1274" 
d="M43 252l213 259q207 -181 409 -181q50 0 96 9.5t82 36t36 66.5q0 20 -9 36.5t-30 29t-41 21.5t-58 18.5t-63.5 14.5t-74.5 14.5t-76 14.5q-79 16 -140 34.5t-126 51t-107.5 73.5t-70 104t-27.5 141q0 191 140.5 315t386.5 124q296 0 548 -190l-202 -257q-73 58 -167 91
t-183 33q-69 0 -121.5 -20t-52.5 -64q0 -17 8 -30.5t28.5 -25t39.5 -19t59 -16t67.5 -13.5t82.5 -14q60 -10 108 -20t106.5 -29t102.5 -41.5t88 -58t72.5 -78.5t46 -103t17.5 -131q0 -128 -74.5 -231t-202.5 -160t-284 -57q-152 0 -314 61t-313 191z" />
    <glyph glyph-name="uni0456" unicode="&#x456;" horiz-adv-x="620" 
d="M130 0v1434h360v-1434h-360z" />
    <glyph glyph-name="uni0457" unicode="&#x457;" horiz-adv-x="620" 
d="M130 0v1434h360v-1434h-360zM-65 1837h297v-286h-297v286zM388 1837h297v-286h-297v286z" />
    <glyph glyph-name="uni0458" unicode="&#x458;" horiz-adv-x="854" 
d="M-19 71l164 316q56 -31 101 -31q44 0 73.5 26t40.5 63q8 28 8 101v887h359v-829q0 -160 -18 -235q-39 -161 -169 -265t-304 -104q-130 0 -255 71z" />
    <glyph glyph-name="uni0459" unicode="&#x459;" horiz-adv-x="2322" 
d="M378 1434h1078v-512h329q170 0 282 -67q101 -60 160 -162.5t59 -229.5q0 -131 -58.5 -233.5t-159.5 -161.5q-109 -68 -283 -68h-687v1105h-362v-441q0 -152 -22.5 -264.5t-79.5 -195.5q-62 -93 -167.5 -149t-230.5 -56q-130 0 -255 71l164 316q55 -31 101 -31
q103 0 125 158q7 50 7 165v756zM1758 594h-302v-264h302q60 0 89 13q85 36 85 120q0 42 -23.5 72.5t-61.5 46.5q-28 12 -89 12z" />
    <glyph glyph-name="uni045A" unicode="&#x45a;" horiz-adv-x="2250" 
d="M130 1434h360v-508h534v508h360v-512h329q170 0 282 -67q101 -60 160 -162.5t59 -229.5q0 -131 -58.5 -233.5t-159.5 -161.5q-109 -68 -283 -68h-689v596h-534v-596h-360v1434zM1686 594h-302v-264h302q60 0 89 13q85 36 85 120q0 42 -23.5 72.5t-61.5 46.5
q-28 12 -89 12z" />
    <glyph glyph-name="uni045B" unicode="&#x45b;" horiz-adv-x="1763" 
d="M1313 1104h-455v-175q116 31 242 31q334 0 486 -222q62 -90 78 -204q9 -61 9 -184v-350h-359v364q0 112 -18 157q-43 110 -232 110q-114 0 -206 -36v-595h-358v1104h-440v330h1253v-330z" />
    <glyph glyph-name="uni045C" unicode="&#x45c;" horiz-adv-x="1383" 
d="M854 1434h434l-489 -629l594 -805h-440l-465 660v-660h-358v1434h358v-510zM514 1536l125 322h379l-249 -322h-255z" />
    <glyph glyph-name="uni045D" unicode="&#x45d;" horiz-adv-x="1565" 
d="M333 0h-203v1434h358v-817l745 817h202v-1434h-358v814zM848 1803l125 -322h-255l-249 322h379z" />
    <glyph glyph-name="uni045E" unicode="&#x45e;" horiz-adv-x="1406" 
d="M1416 1434l-529 -987q-28 -52 -43 -80t-42 -73.5t-46 -71t-48.5 -61.5t-54.5 -56t-60 -43.5t-70.5 -35.5t-79.5 -20t-92 -8q-147 0 -281 87l182 305q59 -37 107 -37q25 0 47.5 11.5t45 36.5t36.5 44.5t38 56.5l-516 932h403l307 -586l295 586h401zM338 1828h208
q32 -129 174 -129q143 0 175 129h210q1 -170 -105.5 -264t-279.5 -94q-172 0 -277.5 94t-104.5 264z" />
    <glyph glyph-name="uni045F" unicode="&#x45f;" horiz-adv-x="1534" 
d="M1404 0h-456v-295h-361v295h-457v1434h359v-1102h557v1102h358v-1434z" />
    <glyph glyph-name="uni0490" unicode="&#x490;" horiz-adv-x="1225" 
d="M490 0h-360v1434h678v225h360v-556h-678v-1103z" />
    <glyph glyph-name="uni0491" unicode="&#x491;" horiz-adv-x="1225" 
d="M490 0h-360v1434h678v225h360v-556h-678v-1103z" />
    <glyph glyph-name="Germandbls" unicode="&#x1e9e;" horiz-adv-x="1507" 
d="M1034 873q102 -5 183 -42t130 -95t75 -128t26 -146q0 -90 -35 -171.5t-101.5 -147t-175 -104.5t-243.5 -39q-224 0 -406 151l205 282q70 -55 121.5 -78.5t106.5 -23.5q81 0 126 40t45 100q0 61 -41.5 100t-113.5 39q-86 0 -208 -63l-166 254l330 282q-65 24 -133 24
q-106 0 -175 -55t-97 -157q-18 -62 -18 -130v-765h-356v676q0 170 15 240q45 237 214.5 378.5t408.5 141.5q185 0 330.5 -90.5t225.5 -255.5z" />
    <glyph glyph-name="endash" unicode="&#x2013;" horiz-adv-x="1308" 
d="M125 535v327h1058v-327h-1058z" />
    <glyph glyph-name="emdash" unicode="&#x2014;" horiz-adv-x="1953" 
d="M180 537v324h1593v-324h-1593z" />
    <glyph glyph-name="quoteleft" unicode="&#x2018;" horiz-adv-x="585" 
d="M232 1434h273l-66 -575h-369z" />
    <glyph glyph-name="quoteright" unicode="&#x2019;" horiz-adv-x="585" 
d="M140 1434h368l-162 -575h-272z" />
    <glyph glyph-name="quotesinglbase" unicode="&#x201a;" horiz-adv-x="585" 
d="M144 357h367l-162 -574h-271z" />
    <glyph glyph-name="quotedblleft" unicode="&#x201c;" horiz-adv-x="1011" 
d="M656 1434h269l-65 -575h-367zM228 1434h270l-66 -575h-366z" />
    <glyph glyph-name="quotedblright" unicode="&#x201d;" horiz-adv-x="1011" 
d="M141 1434h366l-162 -575h-270zM568 1434h367l-163 -575h-269z" />
    <glyph glyph-name="quotedblbase" unicode="&#x201e;" horiz-adv-x="1011" 
d="M144 357h366l-162 -575h-270zM571 357h367l-163 -575h-269z" />
    <glyph glyph-name="dagger" unicode="&#x2020;" horiz-adv-x="1173" 
d="M60 1008v329h353v371h346v-371h354v-329h-354v-1295h-346v1295h-353z" />
    <glyph glyph-name="bullet" unicode="&#x2022;" horiz-adv-x="804" 
d="M652 712q0 -106 -71 -178.5t-178 -72.5t-178.5 72t-71.5 179q0 109 71.5 179t178.5 70q105 0 177 -70.5t72 -178.5z" />
    <glyph glyph-name="ellipsis" unicode="&#x2026;" horiz-adv-x="1878" 
d="M134 0v357h359v-357h-359zM1386 0v357h359v-357h-359zM760 0v357h359v-357h-359z" />
    <glyph glyph-name="perthousand" unicode="&#x2030;" horiz-adv-x="2719" 
d="M480 1436q120 0 214.5 -60.5t145 -160t50.5 -216.5t-50.5 -216.5t-145 -160t-214.5 -60.5q-179 0 -294.5 128.5t-115.5 308.5t115.5 308.5t294.5 128.5zM2253 873q120 0 214.5 -60.5t145 -160t50.5 -216.5t-50.5 -216.5t-145 -160t-214.5 -60.5q-179 0 -294 128.5
t-115 308.5t115 308.5t294 128.5zM1365 873q119 0 214 -60.5t145 -160t50 -216.5t-50 -216.5t-145 -160t-214 -60.5q-179 0 -294.5 128.5t-115.5 308.5t115.5 308.5t294.5 128.5zM1601 1434l-314 -490h-354l247 490h421zM244 0l314 490h353l-246 -490h-421zM480 830
q42 0 70 30t37 65.5t9 73.5t-9 73.5t-37 65t-70 29.5t-69.5 -29.5t-37 -65t-9.5 -73.5t9.5 -73.5t37 -65.5t69.5 -30zM1365 267q42 0 70 30t37 65.5t9 73.5t-9 73.5t-37 65t-70 29.5t-69.5 -29.5t-37 -65t-9.5 -73.5t9.5 -73.5t37 -65.5t69.5 -30zM2253 267q42 0 70 30
t37 65.5t9 73.5t-9 73.5t-37 65t-70 29.5t-69.5 -29.5t-37 -65t-9.5 -73.5t9.5 -73.5t37 -65.5t69.5 -30z" />
    <glyph glyph-name="guilsinglleft" unicode="&#x2039;" horiz-adv-x="765" 
d="M308 1114h367l-281 -407l281 -407h-367l-268 407z" />
    <glyph glyph-name="guilsinglright" unicode="&#x203a;" horiz-adv-x="765" 
d="M90 1114h367l268 -407l-268 -407h-367l281 407z" />
    <glyph glyph-name="franc" unicode="&#x20a3;" horiz-adv-x="1321" 
d="M215 1434h1038v-325h-680v-166h514v-322h-514v-120h324v-298h-324v-203h-358v203h-180v298h180v933z" />
    <glyph glyph-name="Euro" unicode="&#x20ac;" horiz-adv-x="1642" 
d="M38 441v235h130q-1 13 -1 41q0 27 1 41h-130v236h182q81 200 263.5 320t418.5 120q247 0 437 -134.5t262 -373.5l-339 -109q-44 136 -136.5 212.5t-225.5 76.5q-178 0 -290 -112h416v-236h-496q-1 -14 -1 -41q0 -28 1 -41h496v-235h-416q110 -112 290 -112
q135 0 226.5 77.5t135.5 215.5l341 -105q-65 -228 -258 -372.5t-444 -144.5q-235 0 -418 120t-264 321h-181z" />
    <glyph glyph-name="hryvnia" unicode="&#x20b4;" horiz-adv-x="1445" 
d="M1259 986h125v-224h-1321v224h846q18 23 18 49q0 33 -40.5 57.5t-137.5 24.5q-84 0 -177.5 -27t-153.5 -71l-179 271q241 145 511 145q178 0 298.5 -64t178.5 -166q59 -106 32 -219zM63 476v225h1321v-225h-823q-31 -26 -31 -53q0 -30 21 -51t55.5 -31t67 -14.5
t65.5 -4.5q191 0 378 132l172 -278q-259 -177 -555 -177q-176 0 -301 64.5t-194 166.5q-84 123 -56 246h-120z" />
    <glyph glyph-name="Ruble" unicode="&#x20bd;" horiz-adv-x="1501" 
d="M631 1108v-228h334q49 0 95.5 28.5t46.5 84.5t-43 83t-100 32h-333zM271 1434h741q122 0 223 -53t162 -155t61 -234q0 -126 -64.5 -216.5t-163.5 -132.5t-218 -42h-381v-112h643v-268h-643v-221h-360v221h-211v268h211v113h-211v276h211v556z" />
    <glyph glyph-name="uni2116" unicode="&#x2116;" horiz-adv-x="2464" 
d="M2344 328v-328h-785v328h785zM2066 857q0 39 -8 73t-35 63.5t-71 29.5q-41 0 -68.5 -28t-37 -63.5t-9.5 -74.5q0 -61 27.5 -112.5t87.5 -51.5t87 50t27 114zM2384 857q0 -122 -52 -226t-152 -168t-228 -64q-187 0 -309.5 132t-122.5 326q0 123 52 226.5t152 167.5t228 64
q188 0 310 -131.5t122 -326.5zM1431 0h-203l-740 803v-803h-358v1434h202l741 -803v803h358v-1434z" />
    <glyph glyph-name="trademark" unicode="&#x2122;" horiz-adv-x="1460" 
d="M587 1434v-184h-164v-426h-203v426h-164v184h531zM657 1434h97l259 -270l258 270h98v-610h-201v242l-155 -141l-156 141v-242h-200v610z" />
    <glyph glyph-name="minus" unicode="&#x2212;" horiz-adv-x="981" 
d="M60 865h861v-327h-861v327z" />
    <glyph glyph-name="cyrbreve" unicode="&#xf6d4;" horiz-adv-x="1119" 
d="M173 1874h208q32 -129 174 -129q143 0 175 129h210q1 -170 -105.5 -264t-279.5 -94q-172 0 -277.5 94t-104.5 264z" />
    <glyph glyph-name="percent.ss02" horiz-adv-x="2147" 
d="M480 829q42 0 70 30t37 65.5t9 73.5t-9 73.5t-37 65t-70 29.5t-69.5 -29.5t-37 -65t-9.5 -73.5t9.5 -73.5t37 -65.5t69.5 -30zM480 1435q120 0 214.5 -60.5t145 -160t50.5 -216.5t-50.5 -216.5t-145 -160t-214.5 -60.5q-179 0 -294.5 128.5t-115.5 308.5t115.5 308.5
t294.5 128.5zM1667 267q42 0 70 30t37 65.5t9 73.5t-9 73.5t-37 65t-70 29.5t-69.5 -29.5t-37 -65t-9.5 -73.5t9.5 -73.5t37 -65.5t69.5 -30zM1667 873q120 0 214.5 -60.5t145 -160t50.5 -216.5t-50.5 -216.5t-145 -160t-214.5 -60.5q-179 0 -294.5 128.5t-115.5 308.5
t115.5 308.5t294.5 128.5zM1344 1434h327l-870 -1434h-325z" />
    <glyph glyph-name="perthousand.ss02" horiz-adv-x="3022" 
d="M480 829q42 0 70 30t37 65.5t9 73.5t-9 73.5t-37 65t-70 29.5t-69.5 -29.5t-37 -65t-9.5 -73.5t9.5 -73.5t37 -65.5t69.5 -30zM480 1435q120 0 214.5 -60.5t145 -160t50.5 -216.5t-50.5 -216.5t-145 -160t-214.5 -60.5q-179 0 -294.5 128.5t-115.5 308.5t115.5 308.5
t294.5 128.5zM1344 1434h327l-870 -1434h-325zM1668 267q42 0 70 30t37 65.5t9 73.5t-9 73.5t-37 65t-70 29.5t-69.5 -29.5t-37 -65t-9.5 -73.5t9.5 -73.5t37 -65.5t69.5 -30zM1668 873q119 0 214 -60.5t145 -160t50 -216.5t-50 -216.5t-145 -160t-214 -60.5
q-179 0 -294.5 128.5t-115.5 308.5t115.5 308.5t294.5 128.5zM2556 267q42 0 70 30t37 65.5t9 73.5t-9 73.5t-37 65t-70 29.5t-69.5 -29.5t-37 -65t-9.5 -73.5t9.5 -73.5t37 -65.5t69.5 -30zM2556 873q120 0 214.5 -60.5t145 -160t50.5 -216.5t-50.5 -216.5t-145 -160
t-214.5 -60.5q-179 0 -294 128.5t-115 308.5t115 308.5t294 128.5z" />
    <glyph glyph-name="zero.ss02" horiz-adv-x="1332" 
d="M665 329q114 0 172.5 98t58.5 290q0 191 -58.5 289t-172.5 98t-173 -98t-59 -289q0 -192 59 -290t173 -98zM665 0q-274 0 -431 193.5t-157 523.5q0 329 157 522.5t431 193.5t431.5 -193.5t157.5 -522.5q0 -330 -157.5 -523.5t-431.5 -193.5z" />
    <glyph glyph-name="cyrdieresis" horiz-adv-x="1215" 
d="M692 1837h297v-286h-297v286zM239 1837h297v-286h-297v286z" />
    <glyph glyph-name="cyracute" horiz-adv-x="617" 
d="M103 1536l125 322h379l-249 -322h-255z" />
    <glyph glyph-name="cyrgrave" horiz-adv-x="617" 
d="M278 1858l125 -322h-255l-249 322h379z" />
    <glyph glyph-name="Euro.ss02" horiz-adv-x="1642" 
d="M1026 758h-988v236h182q81 200 263.5 320t418.5 120q247 0 437 -134.5t262 -373.5l-339 -109q-44 136 -136.5 212.5t-225.5 76.5q-178 0 -290 -112h416v-236zM38 441v235h988v-235h-416q110 -112 290 -112q135 0 226.5 77.5t135.5 215.5l341 -105q-65 -228 -258 -372.5
t-444 -144.5q-235 0 -418 120t-264 321h-181z" />
    <glyph glyph-name="yen.ss02" horiz-adv-x="1454" 
d="M167 438h1120v-245h-381v-193h-358v193h-381v245zM1426 1434l-384 -655h245v-253h-1120v253h245l-384 655h412l287 -542l286 542h413z" />
    <glyph glyph-name="Ruble.ss02" horiz-adv-x="1501" 
d="M631 1108v-228h334q49 0 95.5 28.5t46.5 84.5t-43 83t-100 32h-333zM271 1434h741q122 0 223 -53t162 -155t61 -234q0 -126 -64.5 -216.5t-163.5 -132.5t-218 -42h-952v277h211v556zM60 489h1214v-268h-643v-221h-360v221h-211v268z" />
    <glyph glyph-name="K.ss02" horiz-adv-x="1383" 
d="M854 1434h434l-489 -629l594 -805h-440l-465 660v-660h-358v1434h358v-510z" />
    <glyph glyph-name="uni0419.ss02" horiz-adv-x="1565" 
d="M333 0h-203v1434h358v-817l745 817h202v-1434h-358v814zM431 1819h208q32 -129 174 -129q143 0 175 129h210q1 -170 -105.5 -264t-279.5 -94q-172 0 -277.5 94t-104.5 264z" />
    </font>
</defs>
</svg>
